<?xml version="1.0" encoding="UTF-8" standalone="no"?>
<!DOCTYPE svg PUBLIC "-//W3C//DTD SVG 1.1//EN"
 "http://www.w3.org/Graphics/SVG/1.1/DTD/svg11.dtd">
<!-- Generated by graphviz version 2.42.3 (0)
 -->
<!-- Title: DockerDeps Pages: 1 -->
<svg width="944pt" height="804pt"
 viewBox="0.00 0.00 944.00 803.50" xmlns="http://www.w3.org/2000/svg" xmlns:xlink="http://www.w3.org/1999/xlink">
<g id="graph0" class="graph" transform="scale(1 1) rotate(0) translate(4 799.5)">
<title>DockerDeps</title>
<polygon fill="white" stroke="transparent" points="-4,4 -4,-799.5 940,-799.5 940,4 -4,4"/>
<g id="clust1" class="cluster">
<title>clusterDockerfile</title>
<polygon fill="none" stroke="royalblue" points="183,-536 183,-716.5 411,-716.5 411,-536 183,-536"/>
<text text-anchor="middle" x="297" y="-701.3" font-family="Times,serif" font-size="14.00">docker/&lt;distro&gt;/Dockerfile</text>
</g>
<g id="clust2" class="cluster">
<title>clusterLang</title>
<polygon fill="none" stroke="royalblue" points="421,-116 421,-503 735,-503 735,-116 421,-116"/>
<text text-anchor="middle" x="578" y="-487.8" font-family="Times,serif" font-size="14.00">docker/&lt;distro&gt;/&lt;lang&gt;.Dockerfile</text>
</g>
<g id="clust3" class="cluster">
<title>clusterCache</title>
<polygon fill="none" stroke="royalblue" points="8,-8 8,-83 854,-83 854,-8 8,-8"/>
<text text-anchor="middle" x="431" y="-67.8" font-family="Times,serif" font-size="14.00">cache/&lt;distro&gt;/</text>
</g>
<!-- DISTRO_IMG -->
<g id="node1" class="node">
<title>DISTRO_IMG</title>
<path fill="royalblue" stroke="black" d="M286,-791.23C286,-793.03 257.31,-794.5 222,-794.5 186.69,-794.5 158,-793.03 158,-791.23 158,-791.23 158,-761.77 158,-761.77 158,-759.97 186.69,-758.5 222,-758.5 257.31,-758.5 286,-759.97 286,-761.77 286,-761.77 286,-791.23 286,-791.23"/>
<path fill="none" stroke="black" d="M286,-791.23C286,-789.42 257.31,-787.95 222,-787.95 186.69,-787.95 158,-789.42 158,-791.23"/>
<text text-anchor="middle" x="222" y="-772.8" font-family="Times,serif" font-size="14.00">&lt;distro&gt;:latest</text>
</g>
<!-- ENV_IMG -->
<g id="node7" class="node">
<title>ENV_IMG</title>
<path fill="royalblue" stroke="black" d="M399,-680.85C399,-683.49 353.28,-685.63 297,-685.63 240.72,-685.63 195,-683.49 195,-680.85 195,-680.85 195,-637.9 195,-637.9 195,-635.26 240.72,-633.12 297,-633.12 353.28,-633.12 399,-635.26 399,-637.9 399,-637.9 399,-680.85 399,-680.85"/>
<path fill="none" stroke="black" d="M399,-680.85C399,-678.22 353.28,-676.08 297,-676.08 240.72,-676.08 195,-678.22 195,-680.85"/>
<text text-anchor="middle" x="297" y="-663.17" font-family="Times,serif" font-size="14.00">CMakeSwig:&lt;distro&gt;_env</text>
<text text-anchor="middle" x="297" y="-648.17" font-family="Times,serif" font-size="14.00">env</text>
</g>
<!-- DISTRO_IMG&#45;&gt;ENV_IMG -->
<g id="edge2" class="edge">
<title>DISTRO_IMG&#45;&gt;ENV_IMG</title>
<path fill="none" stroke="black" d="M233.39,-758.01C244.36,-741.17 261.25,-715.24 274.87,-694.34"/>
<polygon fill="black" stroke="black" points="277.96,-696.02 280.48,-685.73 272.09,-692.19 277.96,-696.02"/>
</g>
<!-- PKG -->
<g id="node2" class="node">
<title>PKG</title>
<polygon fill="royalblue" stroke="black" points="439.5,-795.5 308.5,-795.5 304.5,-791.5 304.5,-757.5 435.5,-757.5 439.5,-761.5 439.5,-795.5"/>
<polyline fill="none" stroke="black" points="435.5,-791.5 304.5,-791.5 "/>
<polyline fill="none" stroke="black" points="435.5,-791.5 435.5,-757.5 "/>
<polyline fill="none" stroke="black" points="435.5,-791.5 439.5,-795.5 "/>
<text text-anchor="middle" x="372" y="-780.3" font-family="Times,serif" font-size="14.00">Build packages</text>
<text text-anchor="middle" x="372" y="-765.3" font-family="Times,serif" font-size="14.00">e.g. cmake, g++</text>
</g>
<!-- PKG&#45;&gt;ENV_IMG -->
<g id="edge3" class="edge">
<title>PKG&#45;&gt;ENV_IMG</title>
<path fill="none" stroke="black" stroke-dasharray="5,2" d="M360.12,-757.26C349.13,-740.39 332.52,-714.9 319.1,-694.3"/>
<polygon fill="black" stroke="black" points="321.96,-692.28 313.57,-685.81 316.1,-696.1 321.96,-692.28"/>
<text text-anchor="middle" x="369.5" y="-728.3" font-family="Times,serif" font-size="14.00">install</text>
</g>
<!-- PYPKG -->
<g id="node3" class="node">
<title>PYPKG</title>
<polygon fill="gold" stroke="black" points="558.5,-589.12 425.5,-589.12 421.5,-585.12 421.5,-551.12 554.5,-551.12 558.5,-555.12 558.5,-589.12"/>
<polyline fill="none" stroke="black" points="554.5,-585.12 421.5,-585.12 "/>
<polyline fill="none" stroke="black" points="554.5,-585.12 554.5,-551.12 "/>
<polyline fill="none" stroke="black" points="554.5,-585.12 558.5,-589.12 "/>
<text text-anchor="middle" x="490" y="-573.92" font-family="Times,serif" font-size="14.00">Python packages</text>
<text text-anchor="middle" x="490" y="-558.92" font-family="Times,serif" font-size="14.00">e.g. python&#45;dev</text>
</g>
<!-- LANGENV_IMG -->
<g id="node9" class="node">
<title>LANGENV_IMG</title>
<path fill="royalblue" stroke="black" d="M695,-467.35C695,-469.99 635.39,-472.13 562,-472.13 488.61,-472.13 429,-469.99 429,-467.35 429,-467.35 429,-424.4 429,-424.4 429,-421.76 488.61,-419.62 562,-419.62 635.39,-419.62 695,-421.76 695,-424.4 695,-424.4 695,-467.35 695,-467.35"/>
<path fill="none" stroke="black" d="M695,-467.35C695,-464.72 635.39,-462.58 562,-462.58 488.61,-462.58 429,-464.72 429,-467.35"/>
<text text-anchor="middle" x="562" y="-449.68" font-family="Times,serif" font-size="14.00">CMakeSwig:&lt;distro&gt;_&lt;lang&gt;_env</text>
<text text-anchor="middle" x="562" y="-434.68" font-family="Times,serif" font-size="14.00">env</text>
</g>
<!-- PYPKG&#45;&gt;LANGENV_IMG -->
<g id="edge9" class="edge">
<title>PYPKG&#45;&gt;LANGENV_IMG</title>
<path fill="none" stroke="black" stroke-dasharray="5,2" d="M500.62,-551.09C511.47,-532.68 528.56,-503.65 541.96,-480.91"/>
<polygon fill="black" stroke="black" points="545.01,-482.61 547.07,-472.22 538.98,-479.06 545.01,-482.61"/>
<text text-anchor="middle" x="545.5" y="-514.8" font-family="Times,serif" font-size="14.00">install</text>
</g>
<!-- JAVAPKG -->
<g id="node4" class="node">
<title>JAVAPKG</title>
<polygon fill="crimson" stroke="black" points="693.5,-589.12 580.5,-589.12 576.5,-585.12 576.5,-551.12 689.5,-551.12 693.5,-555.12 693.5,-589.12"/>
<polyline fill="none" stroke="black" points="689.5,-585.12 576.5,-585.12 "/>
<polyline fill="none" stroke="black" points="689.5,-585.12 689.5,-551.12 "/>
<polyline fill="none" stroke="black" points="689.5,-585.12 693.5,-589.12 "/>
<text text-anchor="middle" x="635" y="-573.92" font-family="Times,serif" font-size="14.00">Java packages</text>
<text text-anchor="middle" x="635" y="-558.92" font-family="Times,serif" font-size="14.00">e.g. openjdk</text>
</g>
<!-- JAVAPKG&#45;&gt;LANGENV_IMG -->
<g id="edge10" class="edge">
<title>JAVAPKG&#45;&gt;LANGENV_IMG</title>
<path fill="none" stroke="black" stroke-dasharray="5,2" d="M624.23,-551.09C613.23,-532.68 595.9,-503.65 582.32,-480.91"/>
<polygon fill="black" stroke="black" points="585.27,-479.01 577.13,-472.22 579.26,-482.6 585.27,-479.01"/>
<text text-anchor="middle" x="629.5" y="-514.8" font-family="Times,serif" font-size="14.00">install</text>
</g>
<!-- DOTNETPKG -->
<g id="node5" class="node">
<title>DOTNETPKG</title>
<polygon fill="forestgreen" stroke="black" points="830,-589.12 716,-589.12 712,-585.12 712,-551.12 826,-551.12 830,-555.12 830,-589.12"/>
<polyline fill="none" stroke="black" points="826,-585.12 712,-585.12 "/>
<polyline fill="none" stroke="black" points="826,-585.12 826,-551.12 "/>
<polyline fill="none" stroke="black" points="826,-585.12 830,-589.12 "/>
<text text-anchor="middle" x="771" y="-573.92" font-family="Times,serif" font-size="14.00">.Net packages</text>
<text text-anchor="middle" x="771" y="-558.92" font-family="Times,serif" font-size="14.00">e.g. dotnet&#45;cli</text>
</g>
<!-- DOTNETPKG&#45;&gt;LANGENV_IMG -->
<g id="edge11" class="edge">
<title>DOTNETPKG&#45;&gt;LANGENV_IMG</title>
<path fill="none" stroke="black" stroke-dasharray="5,2" d="M740.16,-551.09C707.01,-531.7 653.75,-500.54 614.08,-477.34"/>
<polygon fill="black" stroke="black" points="615.73,-474.25 605.33,-472.22 612.19,-480.29 615.73,-474.25"/>
<text text-anchor="middle" x="713.5" y="-514.8" font-family="Times,serif" font-size="14.00">install</text>
</g>
<!-- SRC -->
<g id="node6" class="node">
<title>SRC</title>
<polygon fill="royalblue" stroke="black" points="816.5,-463.88 813.5,-467.88 792.5,-467.88 789.5,-463.88 743.5,-463.88 743.5,-427.88 816.5,-427.88 816.5,-463.88"/>
<text text-anchor="middle" x="780" y="-442.18" font-family="Times,serif" font-size="14.00">git repo</text>
</g>
<!-- LANGDEVEL_IMG -->
<g id="node10" class="node">
<title>LANGDEVEL_IMG</title>
<path fill="royalblue" stroke="black" d="M727,-364.1C727,-366.74 664.7,-368.88 588,-368.88 511.3,-368.88 449,-366.74 449,-364.1 449,-364.1 449,-321.15 449,-321.15 449,-318.51 511.3,-316.37 588,-316.37 664.7,-316.37 727,-318.51 727,-321.15 727,-321.15 727,-364.1 727,-364.1"/>
<path fill="none" stroke="black" d="M727,-364.1C727,-361.47 664.7,-359.33 588,-359.33 511.3,-359.33 449,-361.47 449,-364.1"/>
<text text-anchor="middle" x="588" y="-346.43" font-family="Times,serif" font-size="14.00">CMakeSwig:&lt;distro&gt;_&lt;lang&gt;_devel</text>
<text text-anchor="middle" x="588" y="-331.43" font-family="Times,serif" font-size="14.00">devel</text>
</g>
<!-- SRC&#45;&gt;LANGDEVEL_IMG -->
<g id="edge12" class="edge">
<title>SRC&#45;&gt;LANGDEVEL_IMG</title>
<path fill="none" stroke="black" stroke-dasharray="5,2" d="M752.84,-427.8C748.26,-425.04 743.52,-422.27 739,-419.75 710.08,-403.64 677.35,-386.95 649.76,-373.32"/>
<polygon fill="black" stroke="black" points="651.14,-370.1 640.62,-368.82 648.05,-376.38 651.14,-370.1"/>
<text text-anchor="middle" x="719" y="-390.55" font-family="Times,serif" font-size="14.00">copy</text>
</g>
<!-- SWIG_IMG -->
<g id="node8" class="node">
<title>SWIG_IMG</title>
<path fill="royalblue" stroke="black" d="M403,-591.6C403,-594.24 355.49,-596.38 297,-596.38 238.51,-596.38 191,-594.24 191,-591.6 191,-591.6 191,-548.65 191,-548.65 191,-546.01 238.51,-543.87 297,-543.87 355.49,-543.87 403,-546.01 403,-548.65 403,-548.65 403,-591.6 403,-591.6"/>
<path fill="none" stroke="black" d="M403,-591.6C403,-588.97 355.49,-586.83 297,-586.83 238.51,-586.83 191,-588.97 191,-591.6"/>
<text text-anchor="middle" x="297" y="-573.92" font-family="Times,serif" font-size="14.00">CMakeSwig:&lt;distro&gt;_swig</text>
<text text-anchor="middle" x="297" y="-558.92" font-family="Times,serif" font-size="14.00">swig</text>
</g>
<!-- ENV_IMG&#45;&gt;SWIG_IMG -->
<g id="edge1" class="edge">
<title>ENV_IMG&#45;&gt;SWIG_IMG</title>
<path fill="none" stroke="black" d="M297,-633.14C297,-624.82 297,-615.41 297,-606.47"/>
<polygon fill="black" stroke="black" points="300.5,-606.3 297,-596.3 293.5,-606.3 300.5,-606.3"/>
</g>
<!-- SWIG_IMG&#45;&gt;LANGENV_IMG -->
<g id="edge8" class="edge">
<title>SWIG_IMG&#45;&gt;LANGENV_IMG</title>
<path fill="none" stroke="black" d="M351.59,-543.94C394.16,-524.3 453.39,-496.98 498.16,-476.33"/>
<polygon fill="black" stroke="black" points="499.87,-479.39 507.48,-472.02 496.94,-473.04 499.87,-479.39"/>
</g>
<!-- LANGENV_IMG&#45;&gt;LANGDEVEL_IMG -->
<g id="edge4" class="edge">
<title>LANGENV_IMG&#45;&gt;LANGDEVEL_IMG</title>
<path fill="none" stroke="black" d="M568.49,-419.59C571.66,-407.26 575.52,-392.24 578.96,-378.82"/>
<polygon fill="black" stroke="black" points="582.4,-379.5 581.5,-368.94 575.62,-377.76 582.4,-379.5"/>
</g>
<!-- LANGINSTALL_IMG -->
<g id="node12" class="node">
<title>LANGINSTALL_IMG</title>
<path fill="royalblue" stroke="black" d="M713,-171.6C713,-174.24 649.35,-176.38 571,-176.38 492.65,-176.38 429,-174.24 429,-171.6 429,-171.6 429,-128.65 429,-128.65 429,-126.01 492.65,-123.87 571,-123.87 649.35,-123.87 713,-126.01 713,-128.65 713,-128.65 713,-171.6 713,-171.6"/>
<path fill="none" stroke="black" d="M713,-171.6C713,-168.97 649.35,-166.83 571,-166.83 492.65,-166.83 429,-168.97 429,-171.6"/>
<text text-anchor="middle" x="571" y="-153.93" font-family="Times,serif" font-size="14.00">CMakeSwig:&lt;distro&gt;_&lt;lang&gt;_install</text>
<text text-anchor="middle" x="571" y="-138.93" font-family="Times,serif" font-size="14.00">install</text>
</g>
<!-- LANGENV_IMG&#45;&gt;LANGINSTALL_IMG -->
<g id="edge7" class="edge">
<title>LANGENV_IMG&#45;&gt;LANGINSTALL_IMG</title>
<path fill="none" stroke="black" d="M496.4,-419.72C474.44,-407.79 452.41,-391.13 440,-368.75 431.16,-352.82 427.5,-244.59 441,-227.25 460.21,-202.58 481.65,-224.4 509,-209.25 521.03,-202.58 532.52,-193.06 542.27,-183.65"/>
<polygon fill="black" stroke="black" points="544.79,-186.08 549.37,-176.53 539.83,-181.14 544.79,-186.08"/>
</g>
<!-- LANGENV_TAR -->
<g id="node13" class="node">
<title>LANGENV_TAR</title>
<polygon fill="royalblue" stroke="black" points="192,-52 16,-52 16,-16 198,-16 198,-46 192,-52"/>
<polyline fill="none" stroke="black" points="192,-52 192,-46 "/>
<polyline fill="none" stroke="black" points="198,-46 192,-46 "/>
<text text-anchor="middle" x="107" y="-30.3" font-family="Times,serif" font-size="14.00">docker_&lt;lang&gt;_env.tar</text>
</g>
<!-- LANGENV_IMG&#45;&gt;LANGENV_TAR -->
<g id="edge13" class="edge">
<title>LANGENV_IMG&#45;&gt;LANGENV_TAR</title>
<path fill="none" stroke="red" d="M428.88,-440.88C294.29,-433.11 106,-410.33 106,-343.62 106,-343.62 106,-343.62 106,-149.12 106,-119.36 106.34,-85.23 106.63,-62.11"/>
<polygon fill="red" stroke="red" points="110.13,-62.06 106.76,-52.01 103.13,-61.97 110.13,-62.06"/>
<text text-anchor="middle" x="196.5" y="-249.68" font-family="Times,serif" font-size="14.00">make save_env_&lt;distro&gt;</text>
</g>
<!-- LANGBUILD_IMG -->
<g id="node11" class="node">
<title>LANGBUILD_IMG</title>
<path fill="royalblue" stroke="black" d="M726,-274.85C726,-277.49 664.15,-279.63 588,-279.63 511.85,-279.63 450,-277.49 450,-274.85 450,-274.85 450,-231.9 450,-231.9 450,-229.26 511.85,-227.12 588,-227.12 664.15,-227.12 726,-229.26 726,-231.9 726,-231.9 726,-274.85 726,-274.85"/>
<path fill="none" stroke="black" d="M726,-274.85C726,-272.22 664.15,-270.08 588,-270.08 511.85,-270.08 450,-272.22 450,-274.85"/>
<text text-anchor="middle" x="588" y="-257.18" font-family="Times,serif" font-size="14.00">CMakeSwig:&lt;distro&gt;_&lt;lang&gt;_build</text>
<text text-anchor="middle" x="588" y="-242.18" font-family="Times,serif" font-size="14.00">build</text>
</g>
<!-- LANGDEVEL_IMG&#45;&gt;LANGBUILD_IMG -->
<g id="edge5" class="edge">
<title>LANGDEVEL_IMG&#45;&gt;LANGBUILD_IMG</title>
<path fill="none" stroke="black" d="M588,-316.39C588,-308.07 588,-298.66 588,-289.72"/>
<polygon fill="black" stroke="black" points="591.5,-289.55 588,-279.55 584.5,-289.55 591.5,-289.55"/>
</g>
<!-- LANGDEVEL_TAR -->
<g id="node14" class="node">
<title>LANGDEVEL_TAR</title>
<polygon fill="royalblue" stroke="black" points="407.5,-52 216.5,-52 216.5,-16 413.5,-16 413.5,-46 407.5,-52"/>
<polyline fill="none" stroke="black" points="407.5,-52 407.5,-46 "/>
<polyline fill="none" stroke="black" points="413.5,-46 407.5,-46 "/>
<text text-anchor="middle" x="315" y="-30.3" font-family="Times,serif" font-size="14.00">docker_&lt;lang&gt;_devel.tar</text>
</g>
<!-- LANGDEVEL_IMG&#45;&gt;LANGDEVEL_TAR -->
<g id="edge14" class="edge">
<title>LANGDEVEL_IMG&#45;&gt;LANGDEVEL_TAR</title>
<path fill="none" stroke="red" d="M471.09,-317.75C412,-299 345.79,-266.13 312,-209.25 284.78,-163.44 296.43,-98.19 306.36,-61.93"/>
<polygon fill="red" stroke="red" points="309.79,-62.67 309.2,-52.09 303.06,-60.72 309.79,-62.67"/>
<text text-anchor="middle" x="408.5" y="-198.05" font-family="Times,serif" font-size="14.00">make save_devel_&lt;distro&gt;</text>
</g>
<!-- LANGBUILD_IMG&#45;&gt;LANGINSTALL_IMG -->
<g id="edge6" class="edge">
<title>LANGBUILD_IMG&#45;&gt;LANGINSTALL_IMG</title>
<path fill="none" stroke="black" stroke-dasharray="5,2" d="M583.75,-227.09C581.69,-214.76 579.16,-199.74 576.91,-186.32"/>
<polygon fill="black" stroke="black" points="580.36,-185.72 575.25,-176.44 573.45,-186.88 580.36,-185.72"/>
<text text-anchor="middle" x="621" y="-198.05" font-family="Times,serif" font-size="14.00">copy install</text>
</g>
<!-- LANGBUILD_TAR -->
<g id="node15" class="node">
<title>LANGBUILD_TAR</title>
<polygon fill="royalblue" stroke="black" points="840,-52 652,-52 652,-16 846,-16 846,-46 840,-52"/>
<polyline fill="none" stroke="black" points="840,-52 840,-46 "/>
<polyline fill="none" stroke="black" points="846,-46 840,-46 "/>
<text text-anchor="middle" x="749" y="-30.3" font-family="Times,serif" font-size="14.00">docker_&lt;lang&gt;_build.tar</text>
</g>
<!-- LANGBUILD_IMG&#45;&gt;LANGBUILD_TAR -->
<g id="edge15" class="edge">
<title>LANGBUILD_IMG&#45;&gt;LANGBUILD_TAR</title>
<path fill="none" stroke="red" d="M658.07,-227.1C681.82,-215.18 706.29,-198.56 722,-176.25 745.81,-142.44 750.11,-93.24 750.18,-62.72"/>
<polygon fill="red" stroke="red" points="753.68,-62.34 750.05,-52.39 746.68,-62.44 753.68,-62.34"/>
<text text-anchor="middle" x="840.5" y="-146.43" font-family="Times,serif" font-size="14.00">make save_build_&lt;distro&gt;</text>
</g>
<!-- LANGINSTALL_TAR -->
<g id="node16" class="node">
<title>LANGINSTALL_TAR</title>
<polygon fill="royalblue" stroke="black" points="628.5,-52 431.5,-52 431.5,-16 634.5,-16 634.5,-46 628.5,-52"/>
<polyline fill="none" stroke="black" points="628.5,-52 628.5,-46 "/>
<polyline fill="none" stroke="black" points="634.5,-46 628.5,-46 "/>
<text text-anchor="middle" x="533" y="-30.3" font-family="Times,serif" font-size="14.00">docker_&lt;lang&gt;_install.tar</text>
</g>
<!-- LANGINSTALL_IMG&#45;&gt;LANGINSTALL_TAR -->
<g id="edge16" class="edge">
<title>LANGINSTALL_IMG&#45;&gt;LANGINSTALL_TAR</title>
<path fill="none" stroke="red" d="M546.21,-123.91C542.09,-118.4 538.39,-112.31 536,-106 530.79,-92.25 529.78,-75.92 530.19,-62.39"/>
<polygon fill="red" stroke="red" points="533.7,-62.42 530.77,-52.24 526.71,-62.03 533.7,-62.42"/>
<text text-anchor="middle" x="635.5" y="-94.8" font-family="Times,serif" font-size="14.00">make save_install_&lt;distro&gt;</text>
</g>
</g>
</svg>
