<?xml version="1.0" encoding="UTF-8" standalone="no"?>
<!DOCTYPE svg PUBLIC "-//W3C//DTD SVG 1.1//EN"
 "http://www.w3.org/Graphics/SVG/1.1/DTD/svg11.dtd">
<!-- Generated by graphviz version 2.42.3 (0)
 -->
<!-- Title: DockerDeps Pages: 1 -->
<svg width="2039pt" height="736pt"
 viewBox="0.00 0.00 2039.00 736.38" xmlns="http://www.w3.org/2000/svg" xmlns:xlink="http://www.w3.org/1999/xlink">
<g id="graph0" class="graph" transform="scale(1 1) rotate(0) translate(4 732.38)">
<title>DockerDeps</title>
<polygon fill="white" stroke="transparent" points="-4,4 -4,-732.38 2035,-732.38 2035,4 -4,4"/>
<g id="clust1" class="cluster">
<title>clusterDockerfile</title>
<polygon fill="none" stroke="royalblue" points="916,-227.38 916,-649.38 1416,-649.38 1416,-227.38 916,-227.38"/>
<text text-anchor="middle" x="1166" y="-634.17" font-family="Times,serif" font-size="14.00">docker/&lt;distro&gt;/Dockerfile</text>
</g>
<g id="clust2" class="cluster">
<title>clusterPython</title>
<polygon fill="none" stroke="royalblue" points="8,-8 8,-421.88 310,-421.88 310,-8 8,-8"/>
<text text-anchor="middle" x="159" y="-406.68" font-family="Times,serif" font-size="14.00">docker/&lt;distro&gt;/python.Dockerfile</text>
</g>
<g id="clust3" class="cluster">
<title>clusterJava</title>
<polygon fill="none" stroke="royalblue" points="318,-8 318,-421.88 600,-421.88 600,-8 318,-8"/>
<text text-anchor="middle" x="459" y="-406.68" font-family="Times,serif" font-size="14.00">docker/&lt;distro&gt;/java.Dockerfile</text>
</g>
<g id="clust4" class="cluster">
<title>clusterDotnet</title>
<polygon fill="none" stroke="royalblue" points="608,-8 608,-421.88 908,-421.88 908,-8 608,-8"/>
<text text-anchor="middle" x="758" y="-406.68" font-family="Times,serif" font-size="14.00">docker/&lt;distro&gt;/dotnet.Dockerfile</text>
</g>
<g id="clust5" class="cluster">
<title>clusterCache</title>
<polygon fill="none" stroke="royalblue" points="1223,-119.38 1223,-194.38 1823,-194.38 1823,-119.38 1223,-119.38"/>
<text text-anchor="middle" x="1523" y="-179.18" font-family="Times,serif" font-size="14.00">cache/&lt;distro&gt;/</text>
</g>
<!-- DISTRO_IMG -->
<g id="node1" class="node">
<title>DISTRO_IMG</title>
<path fill="royalblue" stroke="black" d="M1277,-724.1C1277,-725.91 1248.31,-727.38 1213,-727.38 1177.69,-727.38 1149,-725.91 1149,-724.1 1149,-724.1 1149,-694.65 1149,-694.65 1149,-692.84 1177.69,-691.38 1213,-691.38 1248.31,-691.38 1277,-692.84 1277,-694.65 1277,-694.65 1277,-724.1 1277,-724.1"/>
<path fill="none" stroke="black" d="M1277,-724.1C1277,-722.3 1248.31,-720.83 1213,-720.83 1177.69,-720.83 1149,-722.3 1149,-724.1"/>
<text text-anchor="middle" x="1213" y="-705.67" font-family="Times,serif" font-size="14.00">&lt;distro&gt;:latest</text>
</g>
<!-- ENV_IMG -->
<g id="node7" class="node">
<title>ENV_IMG</title>
<path fill="royalblue" stroke="black" d="M1386.5,-613.73C1386.5,-616.36 1342.35,-618.5 1288,-618.5 1233.65,-618.5 1189.5,-616.36 1189.5,-613.73 1189.5,-613.73 1189.5,-570.77 1189.5,-570.77 1189.5,-568.14 1233.65,-566 1288,-566 1342.35,-566 1386.5,-568.14 1386.5,-570.77 1386.5,-570.77 1386.5,-613.73 1386.5,-613.73"/>
<path fill="none" stroke="black" d="M1386.5,-613.73C1386.5,-611.09 1342.35,-608.95 1288,-608.95 1233.65,-608.95 1189.5,-611.09 1189.5,-613.73"/>
<text text-anchor="middle" x="1288" y="-596.05" font-family="Times,serif" font-size="14.00">CMakeCpp:&lt;distro&gt;_env</text>
<text text-anchor="middle" x="1288" y="-581.05" font-family="Times,serif" font-size="14.00">env</text>
</g>
<!-- DISTRO_IMG&#45;&gt;ENV_IMG -->
<g id="edge6" class="edge">
<title>DISTRO_IMG&#45;&gt;ENV_IMG</title>
<path fill="none" stroke="black" d="M1224.39,-690.89C1235.36,-674.05 1252.25,-648.12 1265.87,-627.21"/>
<polygon fill="black" stroke="black" points="1268.96,-628.89 1271.48,-618.6 1263.09,-625.07 1268.96,-628.89"/>
</g>
<!-- PKG -->
<g id="node2" class="node">
<title>PKG</title>
<polygon fill="royalblue" stroke="black" points="1430.5,-728.38 1299.5,-728.38 1295.5,-724.38 1295.5,-690.38 1426.5,-690.38 1430.5,-694.38 1430.5,-728.38"/>
<polyline fill="none" stroke="black" points="1426.5,-724.38 1295.5,-724.38 "/>
<polyline fill="none" stroke="black" points="1426.5,-724.38 1426.5,-690.38 "/>
<polyline fill="none" stroke="black" points="1426.5,-724.38 1430.5,-728.38 "/>
<text text-anchor="middle" x="1363" y="-713.17" font-family="Times,serif" font-size="14.00">Build packages</text>
<text text-anchor="middle" x="1363" y="-698.17" font-family="Times,serif" font-size="14.00">e.g. cmake, g++</text>
</g>
<!-- PKG&#45;&gt;ENV_IMG -->
<g id="edge7" class="edge">
<title>PKG&#45;&gt;ENV_IMG</title>
<path fill="none" stroke="black" stroke-dasharray="5,2" d="M1351.12,-690.13C1340.13,-673.27 1323.52,-647.78 1310.1,-627.17"/>
<polygon fill="black" stroke="black" points="1312.96,-625.15 1304.57,-618.68 1307.1,-628.97 1312.96,-625.15"/>
<text text-anchor="middle" x="1360.5" y="-661.17" font-family="Times,serif" font-size="14.00">install</text>
</g>
<!-- PYPKG -->
<g id="node3" class="node">
<title>PYPKG</title>
<polygon fill="royalblue" stroke="black" points="243.5,-508 110.5,-508 106.5,-504 106.5,-470 239.5,-470 243.5,-474 243.5,-508"/>
<polyline fill="none" stroke="black" points="239.5,-504 106.5,-504 "/>
<polyline fill="none" stroke="black" points="239.5,-504 239.5,-470 "/>
<polyline fill="none" stroke="black" points="239.5,-504 243.5,-508 "/>
<text text-anchor="middle" x="175" y="-492.8" font-family="Times,serif" font-size="14.00">Python packages</text>
<text text-anchor="middle" x="175" y="-477.8" font-family="Times,serif" font-size="14.00">e.g. python&#45;dev</text>
</g>
<!-- PYENV_IMG -->
<g id="node12" class="node">
<title>PYENV_IMG</title>
<path fill="royalblue" stroke="black" d="M302,-386.23C302,-388.86 245.08,-391 175,-391 104.92,-391 48,-388.86 48,-386.23 48,-386.23 48,-343.27 48,-343.27 48,-340.64 104.92,-338.5 175,-338.5 245.08,-338.5 302,-340.64 302,-343.27 302,-343.27 302,-386.23 302,-386.23"/>
<path fill="none" stroke="black" d="M302,-386.23C302,-383.59 245.08,-381.45 175,-381.45 104.92,-381.45 48,-383.59 48,-386.23"/>
<text text-anchor="middle" x="175" y="-368.55" font-family="Times,serif" font-size="14.00">CMakeCpp:&lt;distro&gt;_python_env</text>
<text text-anchor="middle" x="175" y="-353.55" font-family="Times,serif" font-size="14.00">env</text>
</g>
<!-- PYPKG&#45;&gt;PYENV_IMG -->
<g id="edge14" class="edge">
<title>PYPKG&#45;&gt;PYENV_IMG</title>
<path fill="none" stroke="black" stroke-dasharray="5,2" d="M175,-469.96C175,-451.96 175,-423.81 175,-401.3"/>
<polygon fill="black" stroke="black" points="178.5,-401.09 175,-391.09 171.5,-401.09 178.5,-401.09"/>
<text text-anchor="middle" x="197.5" y="-433.68" font-family="Times,serif" font-size="14.00">install</text>
</g>
<!-- JAVAPKG -->
<g id="node4" class="node">
<title>JAVAPKG</title>
<polygon fill="royalblue" stroke="black" points="533.5,-508 420.5,-508 416.5,-504 416.5,-470 529.5,-470 533.5,-474 533.5,-508"/>
<polyline fill="none" stroke="black" points="529.5,-504 416.5,-504 "/>
<polyline fill="none" stroke="black" points="529.5,-504 529.5,-470 "/>
<polyline fill="none" stroke="black" points="529.5,-504 533.5,-508 "/>
<text text-anchor="middle" x="475" y="-492.8" font-family="Times,serif" font-size="14.00">Java packages</text>
<text text-anchor="middle" x="475" y="-477.8" font-family="Times,serif" font-size="14.00">e.g. openjdk</text>
</g>
<!-- JAVAENV_IMG -->
<g id="node16" class="node">
<title>JAVAENV_IMG</title>
<path fill="royalblue" stroke="black" d="M591.5,-386.23C591.5,-388.86 539.28,-391 475,-391 410.72,-391 358.5,-388.86 358.5,-386.23 358.5,-386.23 358.5,-343.27 358.5,-343.27 358.5,-340.64 410.72,-338.5 475,-338.5 539.28,-338.5 591.5,-340.64 591.5,-343.27 591.5,-343.27 591.5,-386.23 591.5,-386.23"/>
<path fill="none" stroke="black" d="M591.5,-386.23C591.5,-383.59 539.28,-381.45 475,-381.45 410.72,-381.45 358.5,-383.59 358.5,-386.23"/>
<text text-anchor="middle" x="475" y="-368.55" font-family="Times,serif" font-size="14.00">CMakeCpp:&lt;distro&gt;_java_env</text>
<text text-anchor="middle" x="475" y="-353.55" font-family="Times,serif" font-size="14.00">env</text>
</g>
<!-- JAVAPKG&#45;&gt;JAVAENV_IMG -->
<g id="edge21" class="edge">
<title>JAVAPKG&#45;&gt;JAVAENV_IMG</title>
<path fill="none" stroke="black" stroke-dasharray="5,2" d="M475,-469.96C475,-451.96 475,-423.81 475,-401.3"/>
<polygon fill="black" stroke="black" points="478.5,-401.09 475,-391.09 471.5,-401.09 478.5,-401.09"/>
<text text-anchor="middle" x="497.5" y="-433.68" font-family="Times,serif" font-size="14.00">install</text>
</g>
<!-- DOTNETPKG -->
<g id="node5" class="node">
<title>DOTNETPKG</title>
<polygon fill="royalblue" stroke="black" points="833,-508 719,-508 715,-504 715,-470 829,-470 833,-474 833,-508"/>
<polyline fill="none" stroke="black" points="829,-504 715,-504 "/>
<polyline fill="none" stroke="black" points="829,-504 829,-470 "/>
<polyline fill="none" stroke="black" points="829,-504 833,-508 "/>
<text text-anchor="middle" x="774" y="-492.8" font-family="Times,serif" font-size="14.00">.Net packages</text>
<text text-anchor="middle" x="774" y="-477.8" font-family="Times,serif" font-size="14.00">e.g. dotnet&#45;cli</text>
</g>
<!-- DOTNETENV_IMG -->
<g id="node20" class="node">
<title>DOTNETENV_IMG</title>
<path fill="royalblue" stroke="black" d="M899.5,-386.23C899.5,-388.86 843.25,-391 774,-391 704.75,-391 648.5,-388.86 648.5,-386.23 648.5,-386.23 648.5,-343.27 648.5,-343.27 648.5,-340.64 704.75,-338.5 774,-338.5 843.25,-338.5 899.5,-340.64 899.5,-343.27 899.5,-343.27 899.5,-386.23 899.5,-386.23"/>
<path fill="none" stroke="black" d="M899.5,-386.23C899.5,-383.59 843.25,-381.45 774,-381.45 704.75,-381.45 648.5,-383.59 648.5,-386.23"/>
<text text-anchor="middle" x="774" y="-368.55" font-family="Times,serif" font-size="14.00">CMakeCpp:&lt;distro&gt;_dotnet_env</text>
<text text-anchor="middle" x="774" y="-353.55" font-family="Times,serif" font-size="14.00">env</text>
</g>
<!-- DOTNETPKG&#45;&gt;DOTNETENV_IMG -->
<g id="edge28" class="edge">
<title>DOTNETPKG&#45;&gt;DOTNETENV_IMG</title>
<path fill="none" stroke="black" stroke-dasharray="5,2" d="M774,-469.96C774,-451.96 774,-423.81 774,-401.3"/>
<polygon fill="black" stroke="black" points="777.5,-401.09 774,-391.09 770.5,-401.09 777.5,-401.09"/>
<text text-anchor="middle" x="796.5" y="-433.68" font-family="Times,serif" font-size="14.00">install</text>
</g>
<!-- SRC -->
<g id="node6" class="node">
<title>SRC</title>
<polygon fill="royalblue" stroke="black" points="511.5,-610.25 508.5,-614.25 487.5,-614.25 484.5,-610.25 438.5,-610.25 438.5,-574.25 511.5,-574.25 511.5,-610.25"/>
<text text-anchor="middle" x="475" y="-588.55" font-family="Times,serif" font-size="14.00">git repo</text>
</g>
<!-- DEVEL_IMG -->
<g id="node9" class="node">
<title>DEVEL_IMG</title>
<path fill="royalblue" stroke="black" d="M1388,-510.48C1388,-513.11 1333.77,-515.25 1267,-515.25 1200.23,-515.25 1146,-513.11 1146,-510.48 1146,-510.48 1146,-467.52 1146,-467.52 1146,-464.89 1200.23,-462.75 1267,-462.75 1333.77,-462.75 1388,-464.89 1388,-467.52 1388,-467.52 1388,-510.48 1388,-510.48"/>
<path fill="none" stroke="black" d="M1388,-510.48C1388,-507.84 1333.77,-505.7 1267,-505.7 1200.23,-505.7 1146,-507.84 1146,-510.48"/>
<text text-anchor="middle" x="1267" y="-492.8" font-family="Times,serif" font-size="14.00">CMakeCpp:&lt;distro&gt;_cpp_devel</text>
<text text-anchor="middle" x="1267" y="-477.8" font-family="Times,serif" font-size="14.00">devel</text>
</g>
<!-- SRC&#45;&gt;DEVEL_IMG -->
<g id="edge8" class="edge">
<title>SRC&#45;&gt;DEVEL_IMG</title>
<path fill="none" stroke="black" stroke-dasharray="5,2" d="M511.73,-588.02C612.18,-578.97 899.74,-551.64 1137,-515.12 1137.6,-515.03 1138.21,-514.94 1138.81,-514.84"/>
<polygon fill="black" stroke="black" points="1139.42,-518.29 1148.74,-513.25 1138.32,-511.38 1139.42,-518.29"/>
<text text-anchor="middle" x="1028" y="-536.92" font-family="Times,serif" font-size="14.00">copy</text>
</g>
<!-- PYDEVEL_IMG -->
<g id="node13" class="node">
<title>PYDEVEL_IMG</title>
<path fill="royalblue" stroke="black" d="M282,-282.98C282,-285.61 222.39,-287.75 149,-287.75 75.61,-287.75 16,-285.61 16,-282.98 16,-282.98 16,-240.02 16,-240.02 16,-237.39 75.61,-235.25 149,-235.25 222.39,-235.25 282,-237.39 282,-240.02 282,-240.02 282,-282.98 282,-282.98"/>
<path fill="none" stroke="black" d="M282,-282.98C282,-280.34 222.39,-278.2 149,-278.2 75.61,-278.2 16,-280.34 16,-282.98"/>
<text text-anchor="middle" x="149" y="-265.3" font-family="Times,serif" font-size="14.00">CMakeCpp:&lt;distro&gt;_python_devel</text>
<text text-anchor="middle" x="149" y="-250.3" font-family="Times,serif" font-size="14.00">devel</text>
</g>
<!-- SRC&#45;&gt;PYDEVEL_IMG -->
<g id="edge15" class="edge">
<title>SRC&#45;&gt;PYDEVEL_IMG</title>
<path fill="none" stroke="black" stroke-dasharray="5,2" d="M438.43,-587.6C354.78,-578.66 152.41,-553.57 97,-515.12 29.16,-468.06 0.67,-411.76 39,-338.62 48.87,-319.8 65.74,-304.7 83.34,-293.08"/>
<polygon fill="black" stroke="black" points="85.4,-295.92 92.02,-287.65 81.69,-289.99 85.4,-295.92"/>
<text text-anchor="middle" x="49" y="-433.68" font-family="Times,serif" font-size="14.00">copy</text>
</g>
<!-- JAVADEVEL_IMG -->
<g id="node17" class="node">
<title>JAVADEVEL_IMG</title>
<path fill="royalblue" stroke="black" d="M572,-282.98C572,-285.61 516.87,-287.75 449,-287.75 381.13,-287.75 326,-285.61 326,-282.98 326,-282.98 326,-240.02 326,-240.02 326,-237.39 381.13,-235.25 449,-235.25 516.87,-235.25 572,-237.39 572,-240.02 572,-240.02 572,-282.98 572,-282.98"/>
<path fill="none" stroke="black" d="M572,-282.98C572,-280.34 516.87,-278.2 449,-278.2 381.13,-278.2 326,-280.34 326,-282.98"/>
<text text-anchor="middle" x="449" y="-265.3" font-family="Times,serif" font-size="14.00">CMakeCpp:&lt;distro&gt;_java_devel</text>
<text text-anchor="middle" x="449" y="-250.3" font-family="Times,serif" font-size="14.00">devel</text>
</g>
<!-- SRC&#45;&gt;JAVADEVEL_IMG -->
<g id="edge22" class="edge">
<title>SRC&#45;&gt;JAVADEVEL_IMG</title>
<path fill="none" stroke="black" stroke-dasharray="5,2" d="M455.1,-573.98C424.51,-545.85 367.52,-486.72 349,-421.88 338.84,-386.3 332.57,-371.78 349,-338.62 358.03,-320.39 373.75,-305.35 390.09,-293.58"/>
<polygon fill="black" stroke="black" points="392.38,-296.26 398.66,-287.72 388.43,-290.48 392.38,-296.26"/>
<text text-anchor="middle" x="375" y="-433.68" font-family="Times,serif" font-size="14.00">copy</text>
</g>
<!-- DOTNETDEVEL_IMG -->
<g id="node21" class="node">
<title>DOTNETDEVEL_IMG</title>
<path fill="royalblue" stroke="black" d="M879.5,-282.98C879.5,-285.61 820.56,-287.75 748,-287.75 675.44,-287.75 616.5,-285.61 616.5,-282.98 616.5,-282.98 616.5,-240.02 616.5,-240.02 616.5,-237.39 675.44,-235.25 748,-235.25 820.56,-235.25 879.5,-237.39 879.5,-240.02 879.5,-240.02 879.5,-282.98 879.5,-282.98"/>
<path fill="none" stroke="black" d="M879.5,-282.98C879.5,-280.34 820.56,-278.2 748,-278.2 675.44,-278.2 616.5,-280.34 616.5,-282.98"/>
<text text-anchor="middle" x="748" y="-265.3" font-family="Times,serif" font-size="14.00">CMakeCpp:&lt;distro&gt;_dotnet_devel</text>
<text text-anchor="middle" x="748" y="-250.3" font-family="Times,serif" font-size="14.00">devel</text>
</g>
<!-- SRC&#45;&gt;DOTNETDEVEL_IMG -->
<g id="edge29" class="edge">
<title>SRC&#45;&gt;DOTNETDEVEL_IMG</title>
<path fill="none" stroke="black" stroke-dasharray="5,2" d="M491.4,-573.98C505.42,-558.91 525.82,-536.22 542,-515.12 572.29,-475.63 580.47,-465.73 604,-421.88 622.97,-386.51 613.78,-369.85 639,-338.62 653.4,-320.8 673.03,-305.35 691.66,-293.11"/>
<polygon fill="black" stroke="black" points="693.58,-296.04 700.13,-287.72 689.82,-290.14 693.58,-296.04"/>
<text text-anchor="middle" x="617" y="-433.68" font-family="Times,serif" font-size="14.00">copy</text>
</g>
<!-- SWIG_IMG -->
<g id="node8" class="node">
<title>SWIG_IMG</title>
<path fill="royalblue" stroke="black" d="M1128.5,-510.48C1128.5,-513.11 1082.56,-515.25 1026,-515.25 969.44,-515.25 923.5,-513.11 923.5,-510.48 923.5,-510.48 923.5,-467.52 923.5,-467.52 923.5,-464.89 969.44,-462.75 1026,-462.75 1082.56,-462.75 1128.5,-464.89 1128.5,-467.52 1128.5,-467.52 1128.5,-510.48 1128.5,-510.48"/>
<path fill="none" stroke="black" d="M1128.5,-510.48C1128.5,-507.84 1082.56,-505.7 1026,-505.7 969.44,-505.7 923.5,-507.84 923.5,-510.48"/>
<text text-anchor="middle" x="1026" y="-492.8" font-family="Times,serif" font-size="14.00">CMakeCpp:&lt;distro&gt;_swig</text>
<text text-anchor="middle" x="1026" y="-477.8" font-family="Times,serif" font-size="14.00">swig</text>
</g>
<!-- ENV_IMG&#45;&gt;SWIG_IMG -->
<g id="edge1" class="edge">
<title>ENV_IMG&#45;&gt;SWIG_IMG</title>
<path fill="none" stroke="black" d="M1223.57,-566.35C1186.28,-551.94 1139.18,-533.74 1100.32,-518.72"/>
<polygon fill="black" stroke="black" points="1101.22,-515.32 1090.63,-514.98 1098.7,-521.85 1101.22,-515.32"/>
</g>
<!-- ENV_IMG&#45;&gt;DEVEL_IMG -->
<g id="edge2" class="edge">
<title>ENV_IMG&#45;&gt;DEVEL_IMG</title>
<path fill="none" stroke="black" d="M1282.75,-565.96C1280.2,-553.64 1277.08,-538.62 1274.3,-525.2"/>
<polygon fill="black" stroke="black" points="1277.71,-524.4 1272.25,-515.32 1270.85,-525.82 1277.71,-524.4"/>
</g>
<!-- INSTALL_IMG -->
<g id="node11" class="node">
<title>INSTALL_IMG</title>
<path fill="royalblue" stroke="black" d="M1387,-282.98C1387,-285.61 1331.42,-287.75 1263,-287.75 1194.58,-287.75 1139,-285.61 1139,-282.98 1139,-282.98 1139,-240.02 1139,-240.02 1139,-237.39 1194.58,-235.25 1263,-235.25 1331.42,-235.25 1387,-237.39 1387,-240.02 1387,-240.02 1387,-282.98 1387,-282.98"/>
<path fill="none" stroke="black" d="M1387,-282.98C1387,-280.34 1331.42,-278.2 1263,-278.2 1194.58,-278.2 1139,-280.34 1139,-282.98"/>
<text text-anchor="middle" x="1263" y="-265.3" font-family="Times,serif" font-size="14.00">CMakeCpp:&lt;distro&gt;_cpp_install</text>
<text text-anchor="middle" x="1263" y="-250.3" font-family="Times,serif" font-size="14.00">install</text>
</g>
<!-- ENV_IMG&#45;&gt;INSTALL_IMG -->
<g id="edge5" class="edge">
<title>ENV_IMG&#45;&gt;INSTALL_IMG</title>
<path fill="none" stroke="black" d="M1344.48,-565.99C1364.86,-553.76 1385.64,-536.92 1397,-515.12 1408.99,-492.13 1422.99,-392.06 1396,-338.62 1385.91,-318.65 1368.09,-303.58 1348.71,-292.35"/>
<polygon fill="black" stroke="black" points="1350.18,-289.17 1339.72,-287.46 1346.83,-295.31 1350.18,-289.17"/>
</g>
<!-- ENV_TAR -->
<g id="node24" class="node">
<title>ENV_TAR</title>
<polygon fill="royalblue" stroke="black" points="1809,-163.38 1695,-163.38 1695,-127.38 1815,-127.38 1815,-157.38 1809,-163.38"/>
<polyline fill="none" stroke="black" points="1809,-163.38 1809,-157.38 "/>
<polyline fill="none" stroke="black" points="1815,-157.38 1809,-157.38 "/>
<text text-anchor="middle" x="1755" y="-141.68" font-family="Times,serif" font-size="14.00">docker_env.tar</text>
</g>
<!-- ENV_IMG&#45;&gt;ENV_TAR -->
<g id="edge30" class="edge">
<title>ENV_IMG&#45;&gt;ENV_TAR</title>
<path fill="none" stroke="red" d="M1386.54,-583.42C1547.72,-569.27 1850,-536.53 1850,-490 1850,-490 1850,-490 1850,-260.5 1850,-222.07 1817.78,-189.7 1790.87,-169.36"/>
<polygon fill="red" stroke="red" points="1792.88,-166.49 1782.73,-163.44 1788.76,-172.15 1792.88,-166.49"/>
<text text-anchor="middle" x="1940.5" y="-361.05" font-family="Times,serif" font-size="14.00">make save_env_&lt;distro&gt;</text>
</g>
<!-- SWIG_IMG&#45;&gt;PYENV_IMG -->
<g id="edge13" class="edge">
<title>SWIG_IMG&#45;&gt;PYENV_IMG</title>
<path fill="none" stroke="black" d="M923.46,-472.85C896.97,-469.25 868.45,-465.65 842,-462.88 733.86,-451.51 705.72,-459.71 598,-444.88 564.76,-440.3 557.32,-433.86 524,-429.88 477.63,-424.33 359.67,-431.65 314,-421.88 287.04,-416.1 258.59,-405.5 234.5,-395.05"/>
<polygon fill="black" stroke="black" points="235.71,-391.75 225.15,-390.9 232.88,-398.15 235.71,-391.75"/>
</g>
<!-- SWIG_IMG&#45;&gt;JAVAENV_IMG -->
<g id="edge20" class="edge">
<title>SWIG_IMG&#45;&gt;JAVAENV_IMG</title>
<path fill="none" stroke="black" d="M955.55,-463.27C916.92,-450.87 867.89,-437.01 823,-429.88 774.91,-422.23 651.49,-432.67 604,-421.88 578.99,-416.19 552.8,-405.73 530.6,-395.36"/>
<polygon fill="black" stroke="black" points="531.87,-392.09 521.34,-390.94 528.85,-398.41 531.87,-392.09"/>
</g>
<!-- SWIG_IMG&#45;&gt;DOTNETENV_IMG -->
<g id="edge27" class="edge">
<title>SWIG_IMG&#45;&gt;DOTNETENV_IMG</title>
<path fill="none" stroke="black" d="M987.98,-462.8C970.92,-452 950.32,-439.65 931,-429.88 928.8,-428.76 885.85,-411.23 845.43,-394.78"/>
<polygon fill="black" stroke="black" points="846.64,-391.49 836.06,-390.96 844,-397.97 846.64,-391.49"/>
</g>
<!-- BUILD_IMG -->
<g id="node10" class="node">
<title>BUILD_IMG</title>
<path fill="royalblue" stroke="black" d="M1387,-386.23C1387,-388.86 1333.21,-391 1267,-391 1200.79,-391 1147,-388.86 1147,-386.23 1147,-386.23 1147,-343.27 1147,-343.27 1147,-340.64 1200.79,-338.5 1267,-338.5 1333.21,-338.5 1387,-340.64 1387,-343.27 1387,-343.27 1387,-386.23 1387,-386.23"/>
<path fill="none" stroke="black" d="M1387,-386.23C1387,-383.59 1333.21,-381.45 1267,-381.45 1200.79,-381.45 1147,-383.59 1147,-386.23"/>
<text text-anchor="middle" x="1267" y="-368.55" font-family="Times,serif" font-size="14.00">CMakeCpp:&lt;distro&gt;_cpp_build</text>
<text text-anchor="middle" x="1267" y="-353.55" font-family="Times,serif" font-size="14.00">build</text>
</g>
<!-- DEVEL_IMG&#45;&gt;BUILD_IMG -->
<g id="edge3" class="edge">
<title>DEVEL_IMG&#45;&gt;BUILD_IMG</title>
<path fill="none" stroke="black" d="M1267,-462.67C1267,-444.88 1267,-420.86 1267,-401.18"/>
<polygon fill="black" stroke="black" points="1270.5,-401.05 1267,-391.05 1263.5,-401.05 1270.5,-401.05"/>
</g>
<!-- DEVEL_TAR -->
<g id="node25" class="node">
<title>DEVEL_TAR</title>
<polygon fill="royalblue" stroke="black" points="1670.5,-163.38 1541.5,-163.38 1541.5,-127.38 1676.5,-127.38 1676.5,-157.38 1670.5,-163.38"/>
<polyline fill="none" stroke="black" points="1670.5,-163.38 1670.5,-157.38 "/>
<polyline fill="none" stroke="black" points="1676.5,-157.38 1670.5,-157.38 "/>
<text text-anchor="middle" x="1609" y="-141.68" font-family="Times,serif" font-size="14.00">docker_devel.tar</text>
</g>
<!-- DEVEL_IMG&#45;&gt;DEVEL_TAR -->
<g id="edge31" class="edge">
<title>DEVEL_IMG&#45;&gt;DEVEL_TAR</title>
<path fill="none" stroke="red" d="M1363.91,-463.83C1449.6,-436.72 1569.24,-383.42 1624,-287.62 1644.34,-252.04 1631.95,-203.12 1620.75,-173.18"/>
<polygon fill="red" stroke="red" points="1623.97,-171.82 1617.05,-163.8 1617.46,-174.39 1623.97,-171.82"/>
<text text-anchor="middle" x="1706.5" y="-309.43" font-family="Times,serif" font-size="14.00">make save_devel_&lt;distro&gt;</text>
</g>
<!-- BUILD_IMG&#45;&gt;INSTALL_IMG -->
<g id="edge4" class="edge">
<title>BUILD_IMG&#45;&gt;INSTALL_IMG</title>
<path fill="none" stroke="black" stroke-dasharray="5,2" d="M1266,-338.46C1265.52,-326.26 1264.93,-311.41 1264.41,-298.09"/>
<polygon fill="black" stroke="black" points="1267.89,-297.67 1264,-287.82 1260.9,-297.95 1267.89,-297.67"/>
<text text-anchor="middle" x="1307" y="-309.43" font-family="Times,serif" font-size="14.00">copy install</text>
</g>
<!-- BUILD_TAR -->
<g id="node26" class="node">
<title>BUILD_TAR</title>
<polygon fill="royalblue" stroke="black" points="1517.5,-163.38 1390.5,-163.38 1390.5,-127.38 1523.5,-127.38 1523.5,-157.38 1517.5,-163.38"/>
<polyline fill="none" stroke="black" points="1517.5,-163.38 1517.5,-157.38 "/>
<polyline fill="none" stroke="black" points="1523.5,-157.38 1517.5,-157.38 "/>
<text text-anchor="middle" x="1457" y="-141.68" font-family="Times,serif" font-size="14.00">docker_build.tar</text>
</g>
<!-- BUILD_IMG&#45;&gt;BUILD_TAR -->
<g id="edge32" class="edge">
<title>BUILD_IMG&#45;&gt;BUILD_TAR</title>
<path fill="none" stroke="red" d="M1329.73,-338.61C1353.41,-326.36 1378.78,-309.48 1396,-287.62 1423.51,-252.72 1441.03,-203.52 1449.92,-173.35"/>
<polygon fill="red" stroke="red" points="1453.35,-174.11 1452.71,-163.53 1446.61,-172.19 1453.35,-174.11"/>
<text text-anchor="middle" x="1524.5" y="-257.8" font-family="Times,serif" font-size="14.00">make save_build_&lt;distro&gt;</text>
</g>
<!-- INSTALL_TAR -->
<g id="node27" class="node">
<title>INSTALL_TAR</title>
<polygon fill="royalblue" stroke="black" points="1366.5,-163.38 1231.5,-163.38 1231.5,-127.38 1372.5,-127.38 1372.5,-157.38 1366.5,-163.38"/>
<polyline fill="none" stroke="black" points="1366.5,-163.38 1366.5,-157.38 "/>
<polyline fill="none" stroke="black" points="1372.5,-157.38 1366.5,-157.38 "/>
<text text-anchor="middle" x="1302" y="-141.68" font-family="Times,serif" font-size="14.00">docker_install.tar</text>
</g>
<!-- INSTALL_IMG&#45;&gt;INSTALL_TAR -->
<g id="edge33" class="edge">
<title>INSTALL_IMG&#45;&gt;INSTALL_TAR</title>
<path fill="none" stroke="red" d="M1220.49,-235.32C1209.93,-225.75 1203.31,-214.28 1210,-202.38 1218.12,-187.93 1231.64,-176.78 1245.85,-168.37"/>
<polygon fill="red" stroke="red" points="1247.66,-171.36 1254.74,-163.48 1244.29,-165.23 1247.66,-171.36"/>
<text text-anchor="middle" x="1309.5" y="-206.18" font-family="Times,serif" font-size="14.00">make save_install_&lt;distro&gt;</text>
</g>
<!-- PYENV_IMG&#45;&gt;PYDEVEL_IMG -->
<g id="edge9" class="edge">
<title>PYENV_IMG&#45;&gt;PYDEVEL_IMG</title>
<path fill="none" stroke="black" d="M168.51,-338.46C165.34,-326.14 161.48,-311.12 158.04,-297.7"/>
<polygon fill="black" stroke="black" points="161.38,-296.63 155.5,-287.82 154.6,-298.37 161.38,-296.63"/>
</g>
<!-- PYINSTALL_IMG -->
<g id="node15" class="node">
<title>PYINSTALL_IMG</title>
<path fill="royalblue" stroke="black" d="M295,-63.6C295,-66.24 234.04,-68.38 159,-68.38 83.96,-68.38 23,-66.24 23,-63.6 23,-63.6 23,-20.65 23,-20.65 23,-18.01 83.96,-15.87 159,-15.87 234.04,-15.87 295,-18.01 295,-20.65 295,-20.65 295,-63.6 295,-63.6"/>
<path fill="none" stroke="black" d="M295,-63.6C295,-60.97 234.04,-58.83 159,-58.83 83.96,-58.83 23,-60.97 23,-63.6"/>
<text text-anchor="middle" x="159" y="-45.92" font-family="Times,serif" font-size="14.00">CMakeCpp:&lt;distro&gt;_python_install</text>
<text text-anchor="middle" x="159" y="-30.93" font-family="Times,serif" font-size="14.00">install</text>
</g>
<!-- PYENV_IMG&#45;&gt;PYINSTALL_IMG -->
<g id="edge12" class="edge">
<title>PYENV_IMG&#45;&gt;PYINSTALL_IMG</title>
<path fill="none" stroke="black" d="M236.23,-338.6C257.52,-326.53 279.04,-309.78 291,-287.62 308.77,-254.7 308.58,-152.28 291,-119.25 280.49,-99.5 262.53,-84.5 243.18,-73.25"/>
<polygon fill="black" stroke="black" points="244.66,-70.08 234.21,-68.35 241.3,-76.22 244.66,-70.08"/>
</g>
<!-- PYBUILD_IMG -->
<g id="node14" class="node">
<title>PYBUILD_IMG</title>
<path fill="royalblue" stroke="black" d="M282,-166.85C282,-169.49 222.84,-171.63 150,-171.63 77.16,-171.63 18,-169.49 18,-166.85 18,-166.85 18,-123.9 18,-123.9 18,-121.26 77.16,-119.12 150,-119.12 222.84,-119.12 282,-121.26 282,-123.9 282,-123.9 282,-166.85 282,-166.85"/>
<path fill="none" stroke="black" d="M282,-166.85C282,-164.22 222.84,-162.08 150,-162.08 77.16,-162.08 18,-164.22 18,-166.85"/>
<text text-anchor="middle" x="150" y="-149.18" font-family="Times,serif" font-size="14.00">CMakeCpp:&lt;distro&gt;_python_build</text>
<text text-anchor="middle" x="150" y="-134.18" font-family="Times,serif" font-size="14.00">build</text>
</g>
<!-- PYDEVEL_IMG&#45;&gt;PYBUILD_IMG -->
<g id="edge10" class="edge">
<title>PYDEVEL_IMG&#45;&gt;PYBUILD_IMG</title>
<path fill="none" stroke="black" d="M149.22,-235.17C149.36,-219.51 149.54,-199.17 149.69,-181.91"/>
<polygon fill="black" stroke="black" points="153.19,-181.66 149.78,-171.63 146.19,-181.6 153.19,-181.66"/>
</g>
<!-- PYBUILD_IMG&#45;&gt;PYINSTALL_IMG -->
<g id="edge11" class="edge">
<title>PYBUILD_IMG&#45;&gt;PYINSTALL_IMG</title>
<path fill="none" stroke="black" stroke-dasharray="5,2" d="M152.25,-119.09C153.33,-106.88 154.65,-92.04 155.84,-78.72"/>
<polygon fill="black" stroke="black" points="159.35,-78.71 156.75,-68.44 152.38,-78.09 159.35,-78.71"/>
<text text-anchor="middle" x="197" y="-90.05" font-family="Times,serif" font-size="14.00">copy install</text>
</g>
<!-- JAVAENV_IMG&#45;&gt;JAVADEVEL_IMG -->
<g id="edge16" class="edge">
<title>JAVAENV_IMG&#45;&gt;JAVADEVEL_IMG</title>
<path fill="none" stroke="black" d="M468.51,-338.46C465.34,-326.14 461.48,-311.12 458.04,-297.7"/>
<polygon fill="black" stroke="black" points="461.38,-296.63 455.5,-287.82 454.6,-298.37 461.38,-296.63"/>
</g>
<!-- JAVAINSTALL_IMG -->
<g id="node19" class="node">
<title>JAVAINSTALL_IMG</title>
<path fill="royalblue" stroke="black" d="M585,-63.6C585,-66.24 528.52,-68.38 459,-68.38 389.48,-68.38 333,-66.24 333,-63.6 333,-63.6 333,-20.65 333,-20.65 333,-18.01 389.48,-15.87 459,-15.87 528.52,-15.87 585,-18.01 585,-20.65 585,-20.65 585,-63.6 585,-63.6"/>
<path fill="none" stroke="black" d="M585,-63.6C585,-60.97 528.52,-58.83 459,-58.83 389.48,-58.83 333,-60.97 333,-63.6"/>
<text text-anchor="middle" x="459" y="-45.92" font-family="Times,serif" font-size="14.00">CMakeCpp:&lt;distro&gt;_java_install</text>
<text text-anchor="middle" x="459" y="-30.93" font-family="Times,serif" font-size="14.00">install</text>
</g>
<!-- JAVAENV_IMG&#45;&gt;JAVAINSTALL_IMG -->
<g id="edge19" class="edge">
<title>JAVAENV_IMG&#45;&gt;JAVAINSTALL_IMG</title>
<path fill="none" stroke="black" d="M529.4,-338.5C549.41,-326.19 569.88,-309.3 581,-287.62 598.08,-254.33 596.74,-153.19 581,-119.25 572.02,-99.88 555.43,-84.96 537.31,-73.68"/>
<polygon fill="black" stroke="black" points="538.72,-70.45 528.32,-68.42 535.19,-76.49 538.72,-70.45"/>
</g>
<!-- JAVABUILD_IMG -->
<g id="node18" class="node">
<title>JAVABUILD_IMG</title>
<path fill="royalblue" stroke="black" d="M572,-166.85C572,-169.49 517.32,-171.63 450,-171.63 382.68,-171.63 328,-169.49 328,-166.85 328,-166.85 328,-123.9 328,-123.9 328,-121.26 382.68,-119.12 450,-119.12 517.32,-119.12 572,-121.26 572,-123.9 572,-123.9 572,-166.85 572,-166.85"/>
<path fill="none" stroke="black" d="M572,-166.85C572,-164.22 517.32,-162.08 450,-162.08 382.68,-162.08 328,-164.22 328,-166.85"/>
<text text-anchor="middle" x="450" y="-149.18" font-family="Times,serif" font-size="14.00">CMakeCpp:&lt;distro&gt;_java_build</text>
<text text-anchor="middle" x="450" y="-134.18" font-family="Times,serif" font-size="14.00">build</text>
</g>
<!-- JAVADEVEL_IMG&#45;&gt;JAVABUILD_IMG -->
<g id="edge17" class="edge">
<title>JAVADEVEL_IMG&#45;&gt;JAVABUILD_IMG</title>
<path fill="none" stroke="black" d="M449.22,-235.17C449.36,-219.51 449.54,-199.17 449.69,-181.91"/>
<polygon fill="black" stroke="black" points="453.19,-181.66 449.78,-171.63 446.19,-181.6 453.19,-181.66"/>
</g>
<!-- JAVABUILD_IMG&#45;&gt;JAVAINSTALL_IMG -->
<g id="edge18" class="edge">
<title>JAVABUILD_IMG&#45;&gt;JAVAINSTALL_IMG</title>
<path fill="none" stroke="black" stroke-dasharray="5,2" d="M452.25,-119.09C453.33,-106.88 454.65,-92.04 455.84,-78.72"/>
<polygon fill="black" stroke="black" points="459.35,-78.71 456.75,-68.44 452.38,-78.09 459.35,-78.71"/>
<text text-anchor="middle" x="497" y="-90.05" font-family="Times,serif" font-size="14.00">copy install</text>
</g>
<!-- DOTNETENV_IMG&#45;&gt;DOTNETDEVEL_IMG -->
<g id="edge23" class="edge">
<title>DOTNETENV_IMG&#45;&gt;DOTNETDEVEL_IMG</title>
<path fill="none" stroke="black" d="M767.51,-338.46C764.34,-326.14 760.48,-311.12 757.04,-297.7"/>
<polygon fill="black" stroke="black" points="760.38,-296.63 754.5,-287.82 753.6,-298.37 760.38,-296.63"/>
</g>
<!-- DOTNETINSTALL_IMG -->
<g id="node23" class="node">
<title>DOTNETINSTALL_IMG</title>
<path fill="royalblue" stroke="black" d="M892.5,-63.6C892.5,-66.24 832.21,-68.38 758,-68.38 683.79,-68.38 623.5,-66.24 623.5,-63.6 623.5,-63.6 623.5,-20.65 623.5,-20.65 623.5,-18.01 683.79,-15.87 758,-15.87 832.21,-15.87 892.5,-18.01 892.5,-20.65 892.5,-20.65 892.5,-63.6 892.5,-63.6"/>
<path fill="none" stroke="black" d="M892.5,-63.6C892.5,-60.97 832.21,-58.83 758,-58.83 683.79,-58.83 623.5,-60.97 623.5,-63.6"/>
<text text-anchor="middle" x="758" y="-45.92" font-family="Times,serif" font-size="14.00">CMakeCpp:&lt;distro&gt;_dotnet_install</text>
<text text-anchor="middle" x="758" y="-30.93" font-family="Times,serif" font-size="14.00">install</text>
</g>
<!-- DOTNETENV_IMG&#45;&gt;DOTNETINSTALL_IMG -->
<g id="edge26" class="edge">
<title>DOTNETENV_IMG&#45;&gt;DOTNETINSTALL_IMG</title>
<path fill="none" stroke="black" d="M833.9,-338.54C854.92,-326.43 876.22,-309.66 888,-287.62 923.29,-221.63 922.51,-185.65 888,-119.25 877.75,-99.53 859.98,-84.51 840.81,-73.25"/>
<polygon fill="black" stroke="black" points="842.37,-70.11 831.93,-68.33 838.98,-76.24 842.37,-70.11"/>
</g>
<!-- DOTNETBUILD_IMG -->
<g id="node22" class="node">
<title>DOTNETBUILD_IMG</title>
<path fill="royalblue" stroke="black" d="M879.5,-166.85C879.5,-169.49 821.01,-171.63 749,-171.63 676.99,-171.63 618.5,-169.49 618.5,-166.85 618.5,-166.85 618.5,-123.9 618.5,-123.9 618.5,-121.26 676.99,-119.12 749,-119.12 821.01,-119.12 879.5,-121.26 879.5,-123.9 879.5,-123.9 879.5,-166.85 879.5,-166.85"/>
<path fill="none" stroke="black" d="M879.5,-166.85C879.5,-164.22 821.01,-162.08 749,-162.08 676.99,-162.08 618.5,-164.22 618.5,-166.85"/>
<text text-anchor="middle" x="749" y="-149.18" font-family="Times,serif" font-size="14.00">CMakeCpp:&lt;distro&gt;_dotnet_build</text>
<text text-anchor="middle" x="749" y="-134.18" font-family="Times,serif" font-size="14.00">build</text>
</g>
<!-- DOTNETDEVEL_IMG&#45;&gt;DOTNETBUILD_IMG -->
<g id="edge24" class="edge">
<title>DOTNETDEVEL_IMG&#45;&gt;DOTNETBUILD_IMG</title>
<path fill="none" stroke="black" d="M748.22,-235.17C748.36,-219.51 748.54,-199.17 748.69,-181.91"/>
<polygon fill="black" stroke="black" points="752.19,-181.66 748.78,-171.63 745.19,-181.6 752.19,-181.66"/>
</g>
<!-- DOTNETBUILD_IMG&#45;&gt;DOTNETINSTALL_IMG -->
<g id="edge25" class="edge">
<title>DOTNETBUILD_IMG&#45;&gt;DOTNETINSTALL_IMG</title>
<path fill="none" stroke="black" stroke-dasharray="5,2" d="M751.25,-119.09C752.33,-106.88 753.65,-92.04 754.84,-78.72"/>
<polygon fill="black" stroke="black" points="758.35,-78.71 755.75,-68.44 751.38,-78.09 758.35,-78.71"/>
<text text-anchor="middle" x="796" y="-90.05" font-family="Times,serif" font-size="14.00">copy install</text>
</g>
</g>
</svg>
