<?xml version="1.0" encoding="UTF-8" standalone="no"?>
<!DOCTYPE svg PUBLIC "-//W3C//DTD SVG 1.1//EN"
 "http://www.w3.org/Graphics/SVG/1.1/DTD/svg11.dtd">
<!-- Generated by graphviz version 2.42.3 (0)
 -->
<!-- Title: DockerDeps Pages: 1 -->
<svg width="1684pt" height="921pt"
 viewBox="0.00 0.00 1683.51 920.75" xmlns="http://www.w3.org/2000/svg" xmlns:xlink="http://www.w3.org/1999/xlink">
<g id="graph0" class="graph" transform="scale(1 1) rotate(0) translate(4 916.75)">
<title>DockerDeps</title>
<polygon fill="white" stroke="transparent" points="-4,4 -4,-916.75 1679.51,-916.75 1679.51,4 -4,4"/>
<g id="clust1" class="cluster">
<title>clusterDockerfile</title>
<polygon fill="none" stroke="royalblue" points="1157.51,-653.25 1157.51,-833.75 1385.51,-833.75 1385.51,-653.25 1157.51,-653.25"/>
<text text-anchor="middle" x="1271.51" y="-818.55" font-family="Times,serif" font-size="14.00">docker/&lt;distro&gt;/Dockerfile</text>
</g>
<g id="clust2" class="cluster">
<title>clusterLang</title>
<polygon fill="none" stroke="royalblue" points="548.51,-116 548.51,-620.25 892.51,-620.25 892.51,-116 548.51,-116"/>
<text text-anchor="middle" x="720.51" y="-605.05" font-family="Times,serif" font-size="14.00">docker/&lt;distro&gt;/&lt;lang&gt;.Dockerfile</text>
</g>
<g id="clust3" class="cluster">
<title>clusterCache</title>
<polygon fill="none" stroke="royalblue" points="41.51,-8 41.51,-83 1492.51,-83 1492.51,-8 41.51,-8"/>
<text text-anchor="middle" x="767.01" y="-67.8" font-family="Times,serif" font-size="14.00">cache/&lt;distro&gt;/</text>
</g>
<!-- DISTRO_IMG -->
<g id="node1" class="node">
<title>DISTRO_IMG</title>
<path fill="royalblue" stroke="black" d="M1260.51,-908.48C1260.51,-910.28 1231.82,-911.75 1196.51,-911.75 1161.2,-911.75 1132.51,-910.28 1132.51,-908.48 1132.51,-908.48 1132.51,-879.02 1132.51,-879.02 1132.51,-877.22 1161.2,-875.75 1196.51,-875.75 1231.82,-875.75 1260.51,-877.22 1260.51,-879.02 1260.51,-879.02 1260.51,-908.48 1260.51,-908.48"/>
<path fill="none" stroke="black" d="M1260.51,-908.48C1260.51,-906.67 1231.82,-905.2 1196.51,-905.2 1161.2,-905.2 1132.51,-906.67 1132.51,-908.48"/>
<text text-anchor="middle" x="1196.51" y="-890.05" font-family="Times,serif" font-size="14.00">&lt;distro&gt;:latest</text>
</g>
<!-- BASE_IMG -->
<g id="node7" class="node">
<title>BASE_IMG</title>
<path fill="royalblue" stroke="black" d="M1377.51,-798.1C1377.51,-800.74 1330,-802.88 1271.51,-802.88 1213.02,-802.88 1165.51,-800.74 1165.51,-798.1 1165.51,-798.1 1165.51,-755.15 1165.51,-755.15 1165.51,-752.51 1213.02,-750.37 1271.51,-750.37 1330,-750.37 1377.51,-752.51 1377.51,-755.15 1377.51,-755.15 1377.51,-798.1 1377.51,-798.1"/>
<path fill="none" stroke="black" d="M1377.51,-798.1C1377.51,-795.47 1330,-793.33 1271.51,-793.33 1213.02,-793.33 1165.51,-795.47 1165.51,-798.1"/>
<text text-anchor="middle" x="1271.51" y="-780.42" font-family="Times,serif" font-size="14.00">CMakeSwig:&lt;distro&gt;_base</text>
<text text-anchor="middle" x="1271.51" y="-765.42" font-family="Times,serif" font-size="14.00">env</text>
</g>
<!-- DISTRO_IMG&#45;&gt;BASE_IMG -->
<g id="edge2" class="edge">
<title>DISTRO_IMG&#45;&gt;BASE_IMG</title>
<path fill="none" stroke="black" d="M1207.9,-875.26C1218.87,-858.42 1235.77,-832.49 1249.38,-811.59"/>
<polygon fill="black" stroke="black" points="1252.47,-813.27 1254.99,-802.98 1246.6,-809.44 1252.47,-813.27"/>
</g>
<!-- PKG -->
<g id="node2" class="node">
<title>PKG</title>
<polygon fill="royalblue" stroke="black" points="1414.01,-912.75 1283.01,-912.75 1279.01,-908.75 1279.01,-874.75 1410.01,-874.75 1414.01,-878.75 1414.01,-912.75"/>
<polyline fill="none" stroke="black" points="1410.01,-908.75 1279.01,-908.75 "/>
<polyline fill="none" stroke="black" points="1410.01,-908.75 1410.01,-874.75 "/>
<polyline fill="none" stroke="black" points="1410.01,-908.75 1414.01,-912.75 "/>
<text text-anchor="middle" x="1346.51" y="-897.55" font-family="Times,serif" font-size="14.00">Build packages</text>
<text text-anchor="middle" x="1346.51" y="-882.55" font-family="Times,serif" font-size="14.00">e.g. cmake, g++</text>
</g>
<!-- PKG&#45;&gt;BASE_IMG -->
<g id="edge3" class="edge">
<title>PKG&#45;&gt;BASE_IMG</title>
<path fill="none" stroke="black" stroke-dasharray="5,2" d="M1334.63,-874.51C1323.64,-857.64 1307.03,-832.15 1293.61,-811.55"/>
<polygon fill="black" stroke="black" points="1296.47,-809.53 1288.08,-803.06 1290.61,-813.35 1296.47,-809.53"/>
<text text-anchor="middle" x="1344.01" y="-845.55" font-family="Times,serif" font-size="14.00">install</text>
</g>
<!-- PYPKG -->
<g id="node3" class="node">
<title>PYPKG</title>
<polygon fill="gold" stroke="black" points="963.01,-706.38 830.01,-706.38 826.01,-702.38 826.01,-668.38 959.01,-668.38 963.01,-672.38 963.01,-706.38"/>
<polyline fill="none" stroke="black" points="959.01,-702.38 826.01,-702.38 "/>
<polyline fill="none" stroke="black" points="959.01,-702.38 959.01,-668.38 "/>
<polyline fill="none" stroke="black" points="959.01,-702.38 963.01,-706.38 "/>
<text text-anchor="middle" x="894.51" y="-691.17" font-family="Times,serif" font-size="14.00">Python packages</text>
<text text-anchor="middle" x="894.51" y="-676.17" font-family="Times,serif" font-size="14.00">e.g. python&#45;dev</text>
</g>
<!-- LANGENV_IMG -->
<g id="node9" class="node">
<title>LANGENV_IMG</title>
<path fill="royalblue" stroke="black" d="M881.51,-584.6C881.51,-587.24 821.9,-589.38 748.51,-589.38 675.12,-589.38 615.51,-587.24 615.51,-584.6 615.51,-584.6 615.51,-541.65 615.51,-541.65 615.51,-539.01 675.12,-536.87 748.51,-536.87 821.9,-536.87 881.51,-539.01 881.51,-541.65 881.51,-541.65 881.51,-584.6 881.51,-584.6"/>
<path fill="none" stroke="black" d="M881.51,-584.6C881.51,-581.97 821.9,-579.83 748.51,-579.83 675.12,-579.83 615.51,-581.97 615.51,-584.6"/>
<text text-anchor="middle" x="748.51" y="-566.92" font-family="Times,serif" font-size="14.00">CMakeSwig:&lt;distro&gt;_&lt;lang&gt;_env</text>
<text text-anchor="middle" x="748.51" y="-551.92" font-family="Times,serif" font-size="14.00">env</text>
</g>
<!-- PYPKG&#45;&gt;LANGENV_IMG -->
<g id="edge10" class="edge">
<title>PYPKG&#45;&gt;LANGENV_IMG</title>
<path fill="none" stroke="black" stroke-dasharray="5,2" d="M872.97,-668.34C850.3,-649.36 814.16,-619.09 786.65,-596.06"/>
<polygon fill="black" stroke="black" points="788.69,-593.21 778.78,-589.47 784.2,-598.57 788.69,-593.21"/>
<text text-anchor="middle" x="861.01" y="-632.05" font-family="Times,serif" font-size="14.00">install</text>
</g>
<!-- JAVAPKG -->
<g id="node4" class="node">
<title>JAVAPKG</title>
<polygon fill="crimson" stroke="black" points="671.01,-706.38 558.01,-706.38 554.01,-702.38 554.01,-668.38 667.01,-668.38 671.01,-672.38 671.01,-706.38"/>
<polyline fill="none" stroke="black" points="667.01,-702.38 554.01,-702.38 "/>
<polyline fill="none" stroke="black" points="667.01,-702.38 667.01,-668.38 "/>
<polyline fill="none" stroke="black" points="667.01,-702.38 671.01,-706.38 "/>
<text text-anchor="middle" x="612.51" y="-691.17" font-family="Times,serif" font-size="14.00">Java packages</text>
<text text-anchor="middle" x="612.51" y="-676.17" font-family="Times,serif" font-size="14.00">e.g. openjdk</text>
</g>
<!-- JAVAPKG&#45;&gt;LANGENV_IMG -->
<g id="edge11" class="edge">
<title>JAVAPKG&#45;&gt;LANGENV_IMG</title>
<path fill="none" stroke="black" stroke-dasharray="5,2" d="M632.58,-668.34C653.6,-649.44 687.07,-619.35 712.65,-596.36"/>
<polygon fill="black" stroke="black" points="715.22,-598.76 720.32,-589.47 710.54,-593.55 715.22,-598.76"/>
<text text-anchor="middle" x="698.01" y="-632.05" font-family="Times,serif" font-size="14.00">install</text>
</g>
<!-- DOTNETPKG -->
<g id="node5" class="node">
<title>DOTNETPKG</title>
<polygon fill="forestgreen" stroke="black" points="807.51,-706.38 693.51,-706.38 689.51,-702.38 689.51,-668.38 803.51,-668.38 807.51,-672.38 807.51,-706.38"/>
<polyline fill="none" stroke="black" points="803.51,-702.38 689.51,-702.38 "/>
<polyline fill="none" stroke="black" points="803.51,-702.38 803.51,-668.38 "/>
<polyline fill="none" stroke="black" points="803.51,-702.38 807.51,-706.38 "/>
<text text-anchor="middle" x="748.51" y="-691.17" font-family="Times,serif" font-size="14.00">.Net packages</text>
<text text-anchor="middle" x="748.51" y="-676.17" font-family="Times,serif" font-size="14.00">e.g. dotnet&#45;cli</text>
</g>
<!-- DOTNETPKG&#45;&gt;LANGENV_IMG -->
<g id="edge12" class="edge">
<title>DOTNETPKG&#45;&gt;LANGENV_IMG</title>
<path fill="none" stroke="black" stroke-dasharray="5,2" d="M748.51,-668.34C748.51,-650.33 748.51,-622.18 748.51,-599.68"/>
<polygon fill="black" stroke="black" points="752.01,-599.47 748.51,-589.47 745.01,-599.47 752.01,-599.47"/>
<text text-anchor="middle" x="771.01" y="-632.05" font-family="Times,serif" font-size="14.00">install</text>
</g>
<!-- SRC -->
<g id="node6" class="node">
<title>SRC</title>
<polygon fill="royalblue" stroke="black" points="1084.01,-581.12 1081.01,-585.12 1060.01,-585.12 1057.01,-581.12 1011.01,-581.12 1011.01,-545.12 1084.01,-545.12 1084.01,-581.12"/>
<text text-anchor="middle" x="1047.51" y="-559.42" font-family="Times,serif" font-size="14.00">git repo</text>
</g>
<!-- LANGDEVEL_IMG -->
<g id="node10" class="node">
<title>LANGDEVEL_IMG</title>
<path fill="royalblue" stroke="black" d="M884.51,-481.35C884.51,-483.99 822.21,-486.13 745.51,-486.13 668.81,-486.13 606.51,-483.99 606.51,-481.35 606.51,-481.35 606.51,-438.4 606.51,-438.4 606.51,-435.76 668.81,-433.62 745.51,-433.62 822.21,-433.62 884.51,-435.76 884.51,-438.4 884.51,-438.4 884.51,-481.35 884.51,-481.35"/>
<path fill="none" stroke="black" d="M884.51,-481.35C884.51,-478.72 822.21,-476.58 745.51,-476.58 668.81,-476.58 606.51,-478.72 606.51,-481.35"/>
<text text-anchor="middle" x="745.51" y="-463.68" font-family="Times,serif" font-size="14.00">CMakeSwig:&lt;distro&gt;_&lt;lang&gt;_devel</text>
<text text-anchor="middle" x="745.51" y="-448.68" font-family="Times,serif" font-size="14.00">devel</text>
</g>
<!-- SRC&#45;&gt;LANGDEVEL_IMG -->
<g id="edge13" class="edge">
<title>SRC&#45;&gt;LANGDEVEL_IMG</title>
<path fill="none" stroke="black" stroke-dasharray="5,2" d="M1010.78,-549.81C966.26,-534.88 889.82,-509.26 830.4,-489.33"/>
<polygon fill="black" stroke="black" points="831.23,-485.92 820.64,-486.06 829.01,-492.56 831.23,-485.92"/>
<text text-anchor="middle" x="931.51" y="-507.8" font-family="Times,serif" font-size="14.00">copy</text>
</g>
<!-- SWIG_IMG -->
<g id="node8" class="node">
<title>SWIG_IMG</title>
<path fill="royalblue" stroke="black" d="M1377.51,-708.85C1377.51,-711.49 1330,-713.63 1271.51,-713.63 1213.02,-713.63 1165.51,-711.49 1165.51,-708.85 1165.51,-708.85 1165.51,-665.9 1165.51,-665.9 1165.51,-663.26 1213.02,-661.12 1271.51,-661.12 1330,-661.12 1377.51,-663.26 1377.51,-665.9 1377.51,-665.9 1377.51,-708.85 1377.51,-708.85"/>
<path fill="none" stroke="black" d="M1377.51,-708.85C1377.51,-706.22 1330,-704.08 1271.51,-704.08 1213.02,-704.08 1165.51,-706.22 1165.51,-708.85"/>
<text text-anchor="middle" x="1271.51" y="-691.17" font-family="Times,serif" font-size="14.00">CMakeSwig:&lt;distro&gt;_swig</text>
<text text-anchor="middle" x="1271.51" y="-676.17" font-family="Times,serif" font-size="14.00">swig</text>
</g>
<!-- BASE_IMG&#45;&gt;SWIG_IMG -->
<g id="edge1" class="edge">
<title>BASE_IMG&#45;&gt;SWIG_IMG</title>
<path fill="none" stroke="black" d="M1271.51,-750.39C1271.51,-742.07 1271.51,-732.66 1271.51,-723.72"/>
<polygon fill="black" stroke="black" points="1275.01,-723.55 1271.51,-713.55 1268.01,-723.55 1275.01,-723.55"/>
</g>
<!-- BASE_TAR -->
<g id="node14" class="node">
<title>BASE_TAR</title>
<polygon fill="royalblue" stroke="black" points="1478.51,-52 1354.51,-52 1354.51,-16 1484.51,-16 1484.51,-46 1478.51,-52"/>
<polyline fill="none" stroke="black" points="1478.51,-52 1478.51,-46 "/>
<polyline fill="none" stroke="black" points="1484.51,-46 1478.51,-46 "/>
<text text-anchor="middle" x="1419.51" y="-30.3" font-family="Times,serif" font-size="14.00">docker_base.tar</text>
</g>
<!-- BASE_IMG&#45;&gt;BASE_TAR -->
<g id="edge14" class="edge">
<title>BASE_IMG&#45;&gt;BASE_TAR</title>
<path fill="none" stroke="red" d="M1377.61,-771.13C1432.24,-762.46 1487.51,-740.75 1487.51,-688.38 1487.51,-688.38 1487.51,-688.38 1487.51,-149.12 1487.51,-114.41 1464,-81.07 1444.63,-59.48"/>
<polygon fill="red" stroke="red" points="1447.11,-57.01 1437.73,-52.08 1441.99,-61.78 1447.11,-57.01"/>
<text text-anchor="middle" x="1581.51" y="-404.55" font-family="Times,serif" font-size="14.00">make save_&lt;distro&gt;_base</text>
</g>
<!-- SWIG_IMG&#45;&gt;LANGENV_IMG -->
<g id="edge9" class="edge">
<title>SWIG_IMG&#45;&gt;LANGENV_IMG</title>
<path fill="none" stroke="black" d="M1171.29,-662.95C1082.86,-642.28 954.06,-612.17 861.89,-590.63"/>
<polygon fill="black" stroke="black" points="862.5,-587.18 851.97,-588.31 860.91,-593.99 862.5,-587.18"/>
</g>
<!-- SWIG_TAR -->
<g id="node15" class="node">
<title>SWIG_TAR</title>
<polygon fill="royalblue" stroke="black" points="1330.51,-52 1206.51,-52 1206.51,-16 1336.51,-16 1336.51,-46 1330.51,-52"/>
<polyline fill="none" stroke="black" points="1330.51,-52 1330.51,-46 "/>
<polyline fill="none" stroke="black" points="1336.51,-46 1330.51,-46 "/>
<text text-anchor="middle" x="1271.51" y="-30.3" font-family="Times,serif" font-size="14.00">docker_swig.tar</text>
</g>
<!-- SWIG_IMG&#45;&gt;SWIG_TAR -->
<g id="edge15" class="edge">
<title>SWIG_IMG&#45;&gt;SWIG_TAR</title>
<path fill="none" stroke="red" d="M1271.51,-661.09C1271.51,-636.37 1271.51,-597.66 1271.51,-564.12 1271.51,-564.12 1271.51,-564.12 1271.51,-149.12 1271.51,-119.36 1271.51,-85.24 1271.51,-62.11"/>
<polygon fill="red" stroke="red" points="1275.01,-62.01 1271.51,-52.01 1268.01,-62.02 1275.01,-62.01"/>
<text text-anchor="middle" x="1365.51" y="-352.93" font-family="Times,serif" font-size="14.00">make save_&lt;distro&gt;_swig</text>
</g>
<!-- LANGENV_IMG&#45;&gt;LANGDEVEL_IMG -->
<g id="edge4" class="edge">
<title>LANGENV_IMG&#45;&gt;LANGDEVEL_IMG</title>
<path fill="none" stroke="black" d="M747.76,-536.84C747.4,-524.63 746.96,-509.79 746.56,-496.47"/>
<polygon fill="black" stroke="black" points="750.06,-496.08 746.26,-486.19 743.06,-496.29 750.06,-496.08"/>
</g>
<!-- LANGINSTALLDEVEL_IMG -->
<g id="node12" class="node">
<title>LANGINSTALLDEVEL_IMG</title>
<path fill="royalblue" stroke="black" d="M885.01,-274.85C885.01,-277.49 811.28,-279.63 720.51,-279.63 629.74,-279.63 556.01,-277.49 556.01,-274.85 556.01,-274.85 556.01,-231.9 556.01,-231.9 556.01,-229.26 629.74,-227.12 720.51,-227.12 811.28,-227.12 885.01,-229.26 885.01,-231.9 885.01,-231.9 885.01,-274.85 885.01,-274.85"/>
<path fill="none" stroke="black" d="M885.01,-274.85C885.01,-272.22 811.28,-270.08 720.51,-270.08 629.74,-270.08 556.01,-272.22 556.01,-274.85"/>
<text text-anchor="middle" x="720.51" y="-257.18" font-family="Times,serif" font-size="14.00">CMakeSwig:&lt;distro&gt;_&lt;lang&gt;_install_devel</text>
<text text-anchor="middle" x="720.51" y="-242.18" font-family="Times,serif" font-size="14.00">install</text>
</g>
<!-- LANGENV_IMG&#45;&gt;LANGINSTALLDEVEL_IMG -->
<g id="edge7" class="edge">
<title>LANGENV_IMG&#45;&gt;LANGINSTALLDEVEL_IMG</title>
<path fill="none" stroke="black" d="M660.62,-537.3C635.93,-525.83 611.9,-509.37 597.51,-486 561.27,-427.15 563.87,-390.87 597.51,-330.5 608.32,-311.1 626.35,-296.01 645.31,-284.58"/>
<polygon fill="black" stroke="black" points="647.11,-287.58 654.06,-279.58 643.64,-281.5 647.11,-287.58"/>
</g>
<!-- LANGENV_TAR -->
<g id="node16" class="node">
<title>LANGENV_TAR</title>
<polygon fill="royalblue" stroke="black" points="1182.51,-52 1006.51,-52 1006.51,-16 1188.51,-16 1188.51,-46 1182.51,-52"/>
<polyline fill="none" stroke="black" points="1182.51,-52 1182.51,-46 "/>
<polyline fill="none" stroke="black" points="1188.51,-46 1182.51,-46 "/>
<text text-anchor="middle" x="1097.51" y="-30.3" font-family="Times,serif" font-size="14.00">docker_&lt;lang&gt;_env.tar</text>
</g>
<!-- LANGENV_IMG&#45;&gt;LANGENV_TAR -->
<g id="edge16" class="edge">
<title>LANGENV_IMG&#45;&gt;LANGENV_TAR</title>
<path fill="none" stroke="red" d="M813.3,-536.83C840.12,-524.26 870.31,-507.18 893.51,-486 967.21,-418.72 930.58,-349.9 1015.51,-297.5 1046.71,-278.25 1155.04,-306.8 1179.51,-279.5 1237.42,-214.89 1160.67,-107.99 1119.94,-59.85"/>
<polygon fill="red" stroke="red" points="1122.45,-57.4 1113.27,-52.11 1117.15,-61.97 1122.45,-57.4"/>
<text text-anchor="middle" x="1136.51" y="-301.3" font-family="Times,serif" font-size="14.00">make save_&lt;distro&gt;_&lt;lang&gt;_env</text>
</g>
<!-- LANGBUILD_IMG -->
<g id="node11" class="node">
<title>LANGBUILD_IMG</title>
<path fill="royalblue" stroke="black" d="M882.51,-378.1C882.51,-380.74 820.66,-382.88 744.51,-382.88 668.36,-382.88 606.51,-380.74 606.51,-378.1 606.51,-378.1 606.51,-335.15 606.51,-335.15 606.51,-332.51 668.36,-330.37 744.51,-330.37 820.66,-330.37 882.51,-332.51 882.51,-335.15 882.51,-335.15 882.51,-378.1 882.51,-378.1"/>
<path fill="none" stroke="black" d="M882.51,-378.1C882.51,-375.47 820.66,-373.33 744.51,-373.33 668.36,-373.33 606.51,-375.47 606.51,-378.1"/>
<text text-anchor="middle" x="744.51" y="-360.43" font-family="Times,serif" font-size="14.00">CMakeSwig:&lt;distro&gt;_&lt;lang&gt;_build</text>
<text text-anchor="middle" x="744.51" y="-345.43" font-family="Times,serif" font-size="14.00">build</text>
</g>
<!-- LANGDEVEL_IMG&#45;&gt;LANGBUILD_IMG -->
<g id="edge5" class="edge">
<title>LANGDEVEL_IMG&#45;&gt;LANGBUILD_IMG</title>
<path fill="none" stroke="black" d="M745.26,-433.59C745.14,-421.38 744.99,-406.54 744.86,-393.22"/>
<polygon fill="black" stroke="black" points="748.36,-392.91 744.76,-382.94 741.36,-392.98 748.36,-392.91"/>
</g>
<!-- LANGDEVEL_TAR -->
<g id="node17" class="node">
<title>LANGDEVEL_TAR</title>
<polygon fill="royalblue" stroke="black" points="982.01,-52 791.01,-52 791.01,-16 988.01,-16 988.01,-46 982.01,-52"/>
<polyline fill="none" stroke="black" points="982.01,-52 982.01,-46 "/>
<polyline fill="none" stroke="black" points="988.01,-46 982.01,-46 "/>
<text text-anchor="middle" x="889.51" y="-30.3" font-family="Times,serif" font-size="14.00">docker_&lt;lang&gt;_devel.tar</text>
</g>
<!-- LANGDEVEL_IMG&#45;&gt;LANGDEVEL_TAR -->
<g id="edge17" class="edge">
<title>LANGDEVEL_IMG&#45;&gt;LANGDEVEL_TAR</title>
<path fill="none" stroke="red" d="M853.1,-434.6C889.22,-419.59 920.51,-395.62 920.51,-357.62 920.51,-357.62 920.51,-357.62 920.51,-149.12 920.51,-118.18 909.77,-84.12 900.93,-61.34"/>
<polygon fill="red" stroke="red" points="904.16,-59.98 897.17,-52.01 897.66,-62.59 904.16,-59.98"/>
<text text-anchor="middle" x="1048.01" y="-249.68" font-family="Times,serif" font-size="14.00">make save_&lt;distro&gt;_&lt;lang&gt;_devel</text>
</g>
<!-- LANGBUILD_IMG&#45;&gt;LANGINSTALLDEVEL_IMG -->
<g id="edge6" class="edge">
<title>LANGBUILD_IMG&#45;&gt;LANGINSTALLDEVEL_IMG</title>
<path fill="none" stroke="black" stroke-dasharray="5,2" d="M738.52,-330.34C735.6,-318.01 732.03,-302.99 728.85,-289.57"/>
<polygon fill="black" stroke="black" points="732.22,-288.62 726.51,-279.69 725.41,-290.23 732.22,-288.62"/>
<text text-anchor="middle" x="774.51" y="-301.3" font-family="Times,serif" font-size="14.00">copy install</text>
</g>
<!-- LANGBUILD_TAR -->
<g id="node18" class="node">
<title>LANGBUILD_TAR</title>
<polygon fill="royalblue" stroke="black" points="237.51,-52 49.51,-52 49.51,-16 243.51,-16 243.51,-46 237.51,-52"/>
<polyline fill="none" stroke="black" points="237.51,-52 237.51,-46 "/>
<polyline fill="none" stroke="black" points="243.51,-46 237.51,-46 "/>
<text text-anchor="middle" x="146.51" y="-30.3" font-family="Times,serif" font-size="14.00">docker_&lt;lang&gt;_build.tar</text>
</g>
<!-- LANGBUILD_IMG&#45;&gt;LANGBUILD_TAR -->
<g id="edge18" class="edge">
<title>LANGBUILD_IMG&#45;&gt;LANGBUILD_TAR</title>
<path fill="none" stroke="red" d="M606.44,-348.27C415.55,-334.87 86.15,-299.08 12.51,-209.25 -31.27,-155.85 53.77,-90.9 107.4,-57.39"/>
<polygon fill="red" stroke="red" points="109.35,-60.3 116.04,-52.09 105.69,-54.34 109.35,-60.3"/>
<text text-anchor="middle" x="139.01" y="-198.05" font-family="Times,serif" font-size="14.00">make save_&lt;distro&gt;_&lt;lang&gt;_build</text>
</g>
<!-- LANGINSTALLBUILD_IMG -->
<g id="node13" class="node">
<title>LANGINSTALLBUILD_IMG</title>
<path fill="royalblue" stroke="black" d="M885.01,-171.6C885.01,-174.24 811.73,-176.38 721.51,-176.38 631.29,-176.38 558.01,-174.24 558.01,-171.6 558.01,-171.6 558.01,-128.65 558.01,-128.65 558.01,-126.01 631.29,-123.87 721.51,-123.87 811.73,-123.87 885.01,-126.01 885.01,-128.65 885.01,-128.65 885.01,-171.6 885.01,-171.6"/>
<path fill="none" stroke="black" d="M885.01,-171.6C885.01,-168.97 811.73,-166.83 721.51,-166.83 631.29,-166.83 558.01,-168.97 558.01,-171.6"/>
<text text-anchor="middle" x="721.51" y="-153.93" font-family="Times,serif" font-size="14.00">CMakeSwig:&lt;distro&gt;_&lt;lang&gt;_install_build</text>
<text text-anchor="middle" x="721.51" y="-138.93" font-family="Times,serif" font-size="14.00">install</text>
</g>
<!-- LANGINSTALLDEVEL_IMG&#45;&gt;LANGINSTALLBUILD_IMG -->
<g id="edge8" class="edge">
<title>LANGINSTALLDEVEL_IMG&#45;&gt;LANGINSTALLBUILD_IMG</title>
<path fill="none" stroke="black" d="M720.76,-227.09C720.88,-214.88 721.03,-200.04 721.16,-186.72"/>
<polygon fill="black" stroke="black" points="724.66,-186.48 721.26,-176.44 717.66,-186.41 724.66,-186.48"/>
</g>
<!-- LANGINSTALLDEVEL_TAR -->
<g id="node19" class="node">
<title>LANGINSTALLDEVEL_TAR</title>
<polygon fill="royalblue" stroke="black" points="503.51,-52 261.51,-52 261.51,-16 509.51,-16 509.51,-46 503.51,-52"/>
<polyline fill="none" stroke="black" points="503.51,-52 503.51,-46 "/>
<polyline fill="none" stroke="black" points="509.51,-46 503.51,-46 "/>
<text text-anchor="middle" x="385.51" y="-30.3" font-family="Times,serif" font-size="14.00">docker_&lt;lang&gt;_install_devel.tar</text>
</g>
<!-- LANGINSTALLDEVEL_IMG&#45;&gt;LANGINSTALLDEVEL_TAR -->
<g id="edge19" class="edge">
<title>LANGINSTALLDEVEL_IMG&#45;&gt;LANGINSTALLDEVEL_TAR</title>
<path fill="none" stroke="red" d="M555.86,-248.19C434.34,-241.22 283.44,-223.06 243.51,-176.25 226.13,-155.88 230.06,-139.16 243.51,-116 259.84,-87.89 289.99,-68.71 318.32,-56.11"/>
<polygon fill="red" stroke="red" points="319.99,-59.21 327.83,-52.09 317.26,-52.76 319.99,-59.21"/>
<text text-anchor="middle" x="396.51" y="-146.43" font-family="Times,serif" font-size="14.00">make save_&lt;distro&gt;_&lt;lang&gt;_install_devel</text>
</g>
<!-- LANGINSTALLBUILD_TAR -->
<g id="node20" class="node">
<title>LANGINSTALLBUILD_TAR</title>
<polygon fill="royalblue" stroke="black" points="767.01,-52 528.01,-52 528.01,-16 773.01,-16 773.01,-46 767.01,-52"/>
<polyline fill="none" stroke="black" points="767.01,-52 767.01,-46 "/>
<polyline fill="none" stroke="black" points="773.01,-46 767.01,-46 "/>
<text text-anchor="middle" x="650.51" y="-30.3" font-family="Times,serif" font-size="14.00">docker_&lt;lang&gt;_install_build.tar</text>
</g>
<!-- LANGINSTALLBUILD_IMG&#45;&gt;LANGINSTALLBUILD_TAR -->
<g id="edge20" class="edge">
<title>LANGINSTALLBUILD_IMG&#45;&gt;LANGINSTALLBUILD_TAR</title>
<path fill="none" stroke="red" d="M620.83,-124.01C613.77,-119.05 607.49,-113.11 602.51,-106 591.6,-90.44 603.53,-72.73 618.22,-58.89"/>
<polygon fill="red" stroke="red" points="620.83,-61.26 626.05,-52.04 616.22,-55.99 620.83,-61.26"/>
<text text-anchor="middle" x="754.51" y="-94.8" font-family="Times,serif" font-size="14.00">make save_&lt;distro&gt;_&lt;lang&gt;_install_build</text>
</g>
</g>
</svg>
